<?xml version="1.0" encoding="utf-8"?>
<!-- Generator: Adobe Illustrator 24.0.2, SVG Export Plug-In . SVG Version: 6.00 Build 0)  -->
<svg version="1.1" id="Capa_1" xmlns="http://www.w3.org/2000/svg" xmlns:xlink="http://www.w3.org/1999/xlink" x="0px" y="0px"
	 viewBox="0 0 1200 1200" style="enable-background:new 0 0 1200 1200;" xml:space="preserve">
<style type="text/css">
	.st0{fill:url(#SVGID_1_);}
	.st1{fill:url(#SVGID_2_);}
	.st2{fill:url(#SVGID_3_);}
	.st3{fill:url(#SVGID_4_);}
	.st4{fill:url(#SVGID_5_);}
	.st5{fill:url(#SVGID_6_);}
	.st6{fill:url(#SVGID_7_);}
	.st7{fill:url(#SVGID_8_);}
	.st8{fill:url(#SVGID_9_);}
	.st9{fill:url(#SVGID_10_);}
	.st10{fill:url(#SVGID_11_);}
	.st11{fill:url(#SVGID_12_);}
	.st12{fill:url(#SVGID_13_);}
	.st13{fill:url(#SVGID_14_);}
	.st14{fill:url(#SVGID_15_);}
	.st15{fill:url(#SVGID_16_);}
	.st16{fill:url(#SVGID_17_);}
	.st17{fill:url(#SVGID_18_);}
	.st18{fill:url(#SVGID_19_);}
	.st19{fill:url(#SVGID_20_);}
	.st20{fill:url(#SVGID_21_);}
	.st21{fill:url(#SVGID_22_);}
	.st22{fill:url(#SVGID_23_);}
	.st23{fill:url(#SVGID_24_);}
	.st24{fill:url(#SVGID_25_);}
	.st25{fill:url(#SVGID_26_);}
	.st26{fill:url(#SVGID_27_);}
	.st27{fill:url(#SVGID_28_);}
	.st28{fill:url(#SVGID_29_);}
	.st29{fill:url(#SVGID_30_);}
	.st30{fill:url(#SVGID_31_);}
	.st31{fill:url(#SVGID_32_);}
	.st32{fill:url(#SVGID_33_);}
	.st33{fill:url(#SVGID_34_);}
	.st34{fill:url(#SVGID_35_);}
	.st35{fill:url(#SVGID_36_);}
	.st36{fill:url(#SVGID_37_);}
	.st37{fill:url(#SVGID_38_);}
	.st38{fill:url(#SVGID_39_);}
	.st39{fill:url(#SVGID_40_);}
	.st40{fill:url(#SVGID_41_);}
	.st41{fill:url(#SVGID_42_);}
	.st42{fill:url(#SVGID_43_);}
	.st43{fill:url(#SVGID_44_);}
	.st44{fill:url(#SVGID_45_);}
	.st45{fill:url(#SVGID_46_);}
	.st46{fill:url(#SVGID_47_);}
	.st47{fill:url(#SVGID_48_);}
	.st48{fill:url(#SVGID_49_);}
	.st49{fill:url(#SVGID_50_);}
	.st50{fill:url(#SVGID_51_);}
	.st51{fill:url(#SVGID_52_);}
	.st52{fill:url(#SVGID_53_);}
	.st53{fill:url(#SVGID_54_);}
	.st54{fill:url(#SVGID_55_);}
	.st55{fill:url(#SVGID_56_);}
	.st56{fill:url(#SVGID_57_);}
	.st57{fill:url(#SVGID_58_);}
	.st58{fill:url(#SVGID_59_);}
</style>
<rect width="1200" height="1200"/>
<g>
	<linearGradient id="SVGID_1_" gradientUnits="userSpaceOnUse" x1="-272.2278" y1="762.8667" x2="1090.3064" y2="662.1713">
		<stop  offset="0.1251" style="stop-color:#7B552A"/>
		<stop  offset="0.2705" style="stop-color:#C19544"/>
		<stop  offset="0.3049" style="stop-color:#86542B"/>
		<stop  offset="0.5614" style="stop-color:#FCF6B1"/>
		<stop  offset="0.8363" style="stop-color:#85542B"/>
	</linearGradient>
	<path class="st0" d="M137.02,724.49c0-11.28-0.15-12.73-0.22-15.06c-0.15-2.98-1.02-3.93-2.77-4.29c-1.09-0.22-2.26-0.22-2.91-0.29
		c-0.87-0.07-1.31-0.36-1.31-0.8s0.51-0.65,1.6-0.65c3.13,0,10.11,0.22,11.13,0.22c1.38,0,8.37-0.22,11.72-0.22
		c6.84,0,11.64,0.65,14.85,2.47c3.49,1.89,6.62,5.6,6.62,11.13c0,6.11-3.49,10.77-9.75,14.63c4.44,6.4,9.75,14.19,14.19,19.28
		c3.86,4.29,5.6,5.53,7.64,5.82c0.8,0.15,1.24,0.15,1.82,0.22c0.8,0,1.24,0.29,1.24,0.73c0,0.66-0.73,0.73-1.46,0.73h-6.55
		c-7.5,0-10.7-0.73-13.24-2.4c-2.33-1.38-4.66-4.51-7.5-9.1c-3.35-5.53-5.02-8.51-6.33-10.48c-0.15-0.22-0.51-0.44-0.87-0.44h-4.8
		c-0.36,0-0.58,0.15-0.58,0.58v3.71c0,5.75,0,9.17,0.36,12.23c0.15,1.89,0.65,3.49,2.84,4c1.02,0.29,1.82,0.29,3.27,0.44
		c1.16,0.07,1.31,0.36,1.31,0.8s-0.51,0.65-1.53,0.65c-4.88,0-12.81-0.22-13.32-0.22c-0.87,0-7.93,0.22-10.41,0.22
		c-1.09,0-1.46-0.22-1.46-0.73c0-0.51,0.51-0.73,1.31-0.73c0.73-0.07,1.67-0.14,2.47-0.29c1.46-0.36,2.04-1.67,2.26-4.15
		c0.29-3.06,0.36-8.15,0.36-15.21V724.49z M149.54,729.36c0,0.58,0.22,0.87,0.65,1.09c1.38,0.73,3.57,0.95,5.6,0.95
		c1.96,0,3.42-0.29,4.58-1.16c1.53-1.16,2.84-4.29,2.84-9.17c0-10.33-6.55-13.03-10.33-13.03c-1.16,0-2.4,0.07-2.91,0.29
		c-0.29,0.15-0.44,0.22-0.44,0.8V729.36z"/>
	<linearGradient id="SVGID_2_" gradientUnits="userSpaceOnUse" x1="-271.7497" y1="769.3354" x2="1090.7844" y2="668.6401">
		<stop  offset="0.1251" style="stop-color:#7B552A"/>
		<stop  offset="0.2705" style="stop-color:#C19544"/>
		<stop  offset="0.3049" style="stop-color:#86542B"/>
		<stop  offset="0.5614" style="stop-color:#FCF6B1"/>
		<stop  offset="0.8363" style="stop-color:#85542B"/>
	</linearGradient>
	<path class="st1" d="M191.88,729c0-9.82,0-11.5-0.22-13.46c-0.15-1.67-0.58-2.84-2.18-3.06c-0.44-0.15-1.16-0.22-2.04-0.29
		c-0.87-0.07-1.24-0.29-1.24-0.73c0-0.36,0.22-0.73,1.46-0.73c2.55,0,9.53,0.22,9.75,0.22c0.36,0,8.59-0.22,11.06-0.22
		c1.16,0,1.31,0.29,1.31,0.73c0,0.51-0.51,0.66-1.31,0.73c-0.66,0.07-0.73,0.07-1.46,0.22c-1.75,0.36-2.33,1.02-2.62,3.2
		c-0.22,2.04-0.22,3.57-0.22,13.39v11.06c0,4.8,0.07,10.77,0.36,13.46c0.15,1.6,0.58,2.69,2.55,3.13c0.87,0.22,1.96,0.22,2.69,0.29
		c1.09,0,1.38,0.44,1.38,0.8c0,0.29-0.29,0.65-1.38,0.65c-4.51,0-12.01-0.22-12.37-0.22c-0.15,0-7.71,0.22-9.75,0.22
		c-1.09,0-1.53-0.22-1.53-0.73c0-0.36,0.36-0.73,1.09-0.73c0.58-0.07,1.24-0.07,2.11-0.22c1.38-0.29,1.96-1.6,2.11-3.42
		c0.36-2.62,0.44-6.99,0.44-13.24V729z"/>
	<linearGradient id="SVGID_3_" gradientUnits="userSpaceOnUse" x1="-271.5078" y1="772.6082" x2="1091.0264" y2="671.9128">
		<stop  offset="0.1251" style="stop-color:#7B552A"/>
		<stop  offset="0.2705" style="stop-color:#C19544"/>
		<stop  offset="0.3049" style="stop-color:#86542B"/>
		<stop  offset="0.5614" style="stop-color:#FCF6B1"/>
		<stop  offset="0.8363" style="stop-color:#85542B"/>
	</linearGradient>
	<path class="st2" d="M233.36,732.71c3.78-3.49,8.51-8.15,14.04-14.26c1.96-2.11,3.27-3.78,3.27-4.8c0-0.73-0.15-1.16-1.82-1.46
		c-0.66-0.07-1.24-0.29-1.24-0.73c0-0.36,0.36-0.65,1.16-0.65c2.98,0,3.06,0.15,6.99,0.15c4,0,8.88-0.15,9.68-0.15
		c1.16,0,1.46,0.22,1.46,0.65c0,0.36-0.44,0.66-1.24,0.73c-0.87,0.15-1.38,0.22-2.11,0.36c-3.49,0.58-5.6,2.55-8.73,5.31
		c-2.98,2.76-9.9,9.82-11.57,11.57c2.33,3.64,12.73,16.16,17.54,21.25c3.42,3.57,4.95,4.66,6.04,5.24c1.16,0.65,2.04,0.8,3.27,1.02
		c1.02,0.07,1.31,0.29,1.31,0.8c0,0.51-0.66,0.65-1.31,0.65h-6.55c-8.81,0-11.93-0.87-15.35-4.15
		c-3.86-3.78-10.19-12.52-14.85-19.43v5.24c0,4.8,0,10.62,0.22,13.24c0.15,1.6,0.65,3.13,2.98,3.42c0.87,0.15,1.96,0.15,2.77,0.22
		c0.8,0.07,1.09,0.44,1.09,0.73c0,0.36-0.36,0.73-1.24,0.73c-4.51,0-12.08-0.22-12.44-0.22c-0.15,0-8,0.22-10.11,0.22
		c-0.73,0-1.31-0.14-1.31-0.65c0-0.51,0.51-0.73,1.31-0.8c0.58-0.07,0.73-0.07,1.46-0.22c2.26-0.29,2.55-1.82,2.69-3.64
		c0.29-2.62,0.44-6.84,0.44-13.03V729c0-9.82,0-11.57-0.22-13.61c-0.15-1.53-0.58-2.55-2.47-2.91c-1.09-0.15-1.75-0.22-2.4-0.29
		c-0.73-0.07-1.31-0.29-1.31-0.8c0-0.36,0.36-0.66,1.67-0.66c2.55,0,10.04,0.22,10.26,0.22c0.36,0,8.66-0.22,10.92-0.22
		c1.24,0,1.38,0.29,1.38,0.73c0,0.44-0.36,0.66-1.24,0.73c-0.44,0.07-1.09,0.15-1.6,0.22c-2.4,0.29-2.62,1.82-2.69,3.78
		c-0.15,2.04-0.15,2.98-0.15,12.81V732.71z"/>
	<linearGradient id="SVGID_4_" gradientUnits="userSpaceOnUse" x1="-271.2673" y1="775.8624" x2="1091.2668" y2="675.1671">
		<stop  offset="0.1251" style="stop-color:#7B552A"/>
		<stop  offset="0.2705" style="stop-color:#C19544"/>
		<stop  offset="0.3049" style="stop-color:#86542B"/>
		<stop  offset="0.5614" style="stop-color:#FCF6B1"/>
		<stop  offset="0.8363" style="stop-color:#85542B"/>
	</linearGradient>
	<path class="st3" d="M274.76,729c0-10.48-0.07-11.64-0.22-13.68c-0.15-1.6-0.8-2.62-2.33-2.91c-0.58-0.15-1.31-0.15-1.96-0.22
		c-0.95-0.07-1.09-0.44-1.09-0.8c0-0.36,0.36-0.66,1.38-0.66c3.93,0,6.99,0.22,9.75,0.22c1.16,0,17.9-0.07,18.92-0.07
		c1.24,0,2.62-0.07,3.71-0.29c0.44-0.15,0.8-0.22,1.02-0.22c0.36,0,0.51,0.29,0.44,0.66c-0.15,0.8-0.36,1.6-0.51,3.06
		c-0.07,1.6-0.15,2.91-0.36,6.84c0,0.51-0.29,1.02-0.73,1.02c-0.36,0-0.66-0.29-0.73-0.87c-0.15-0.87-0.15-1.38-0.36-2.33
		c-0.36-1.46-1.16-2.33-4.29-2.62c-2.4-0.14-7.71-0.29-9.75-0.29c-0.36,0-0.51,0.22-0.51,0.65v13.32c0,0.44,0.07,0.58,0.51,0.58
		c1.96,0,6.48,0,9.02-0.07c3.57-0.15,4.44-0.36,5.24-1.6c0.29-0.58,0.58-0.8,0.87-0.8c0.44,0,0.51,0.44,0.51,0.8
		c0,0.73-0.44,3.49-0.51,5.82c-0.07,1.38-0.15,4.73-0.15,5.46c0,0.87-0.22,1.09-0.66,1.09c-0.36,0-0.65-0.29-0.73-1.02
		c-0.07-0.36-0.07-0.8-0.15-1.24c-0.36-1.96-1.09-3.13-4.51-3.35c-2.04-0.14-6.99-0.22-9.02-0.22c-0.36,0-0.44,0.15-0.44,0.51v4.58
		c0,2.11-0.07,5.09,0,7.64c0.07,4.44,0.87,5.46,8.3,5.46c1.67,0,4.22-0.07,6.04-0.73c1.82-0.73,2.55-2.26,3.13-5.17
		c0.15-0.73,0.44-1.09,0.87-1.09c0.51,0,0.58,0.51,0.58,1.31c0,2.76-0.65,7.86-0.95,9.1c-0.51,1.6-1.02,1.67-3.42,1.67
		c-9.75,0-14.41-0.36-21.32-0.36c-3.06,0-6.19,0.22-9.9,0.22c-1.24,0-1.53-0.36-1.53-0.8c0-0.29,0.22-0.66,1.31-0.66
		c0.66-0.07,1.16-0.07,1.89-0.22c2.11-0.36,2.33-2.84,2.55-7.28c0-2.4,0.07-5.89,0.07-9.39V729z"/>
	<linearGradient id="SVGID_5_" gradientUnits="userSpaceOnUse" x1="-271.0402" y1="778.9363" x2="1091.494" y2="678.2409">
		<stop  offset="0.1251" style="stop-color:#7B552A"/>
		<stop  offset="0.2705" style="stop-color:#C19544"/>
		<stop  offset="0.3049" style="stop-color:#86542B"/>
		<stop  offset="0.5614" style="stop-color:#FCF6B1"/>
		<stop  offset="0.8363" style="stop-color:#85542B"/>
	</linearGradient>
	<path class="st4" d="M328.24,740.13c0,5.97-0.22,10.55,0.8,11.93c0.95,1.31,2.11,1.53,7.57,1.53c3.64,0,5.39-0.07,7.2-0.73
		c1.82-0.73,3.2-2.26,4-5.75c0.15-0.73,0.36-1.31,0.95-1.31c0.44,0,0.58,0.44,0.58,1.31c0,1.6-0.95,7.93-1.6,9.75
		c-0.58,1.67-1.02,1.67-3.42,1.67c-9.82,0-15.86-0.36-22.78-0.36c-3.06,0-6.33,0.22-10.04,0.22c-1.02,0-1.53-0.22-1.53-0.8
		c0-0.29,0.36-0.66,1.24-0.66c0.65-0.07,0.8-0.07,1.53-0.14c2.62-0.44,2.91-1.46,3.13-7.28c0-2.47,0.07-5.97,0.07-9.46V729
		c0-10.48-0.07-11.21-0.22-13.24c-0.15-1.75-0.73-2.76-2.26-3.2c-0.58-0.14-1.46-0.29-2.4-0.36c-0.73-0.07-1.31-0.22-1.31-0.73
		c0-0.51,0.51-0.73,1.82-0.73c3.93,0,7.13,0.22,9.9,0.22c0.36,0,8.81-0.22,11.13-0.22c1.16,0,1.46,0.29,1.46,0.66
		c0,0.58-0.58,0.8-1.16,0.8c-0.73,0.07-1.02,0.07-1.96,0.29c-1.82,0.29-2.33,1.46-2.47,3.71c-0.15,2.04-0.22,2.98-0.22,13.61V740.13
		z"/>
	<linearGradient id="SVGID_6_" gradientUnits="userSpaceOnUse" x1="-270.8176" y1="781.9473" x2="1091.7166" y2="681.252">
		<stop  offset="0.1251" style="stop-color:#7B552A"/>
		<stop  offset="0.2705" style="stop-color:#C19544"/>
		<stop  offset="0.3049" style="stop-color:#86542B"/>
		<stop  offset="0.5614" style="stop-color:#FCF6B1"/>
		<stop  offset="0.8363" style="stop-color:#85542B"/>
	</linearGradient>
	<path class="st5" d="M369.21,740.13c0,5.97-0.22,10.55,0.8,11.93c0.95,1.31,2.11,1.53,7.57,1.53c3.64,0,5.39-0.07,7.2-0.73
		c1.82-0.73,3.2-2.26,4-5.75c0.15-0.73,0.36-1.31,0.95-1.31c0.44,0,0.58,0.44,0.58,1.31c0,1.6-0.95,7.93-1.6,9.75
		c-0.58,1.67-1.02,1.67-3.42,1.67c-9.82,0-15.86-0.36-22.78-0.36c-3.06,0-6.33,0.22-10.04,0.22c-1.02,0-1.53-0.22-1.53-0.8
		c0-0.29,0.36-0.66,1.24-0.66c0.65-0.07,0.8-0.07,1.53-0.14c2.62-0.44,2.91-1.46,3.13-7.28c0-2.47,0.07-5.97,0.07-9.46V729
		c0-10.48-0.07-11.21-0.22-13.24c-0.15-1.75-0.73-2.76-2.26-3.2c-0.58-0.14-1.46-0.29-2.4-0.36c-0.73-0.07-1.31-0.22-1.31-0.73
		c0-0.51,0.51-0.73,1.82-0.73c3.93,0,7.13,0.22,9.9,0.22c0.36,0,8.81-0.22,11.13-0.22c1.16,0,1.46,0.29,1.46,0.66
		c0,0.58-0.58,0.8-1.16,0.8c-0.73,0.07-1.02,0.07-1.96,0.29c-1.82,0.29-2.33,1.46-2.47,3.71c-0.15,2.04-0.22,2.98-0.22,13.61V740.13
		z"/>
	<linearGradient id="SVGID_7_" gradientUnits="userSpaceOnUse" x1="-270.7919" y1="782.2954" x2="1091.7422" y2="681.6">
		<stop  offset="0.1251" style="stop-color:#7B552A"/>
		<stop  offset="0.2705" style="stop-color:#C19544"/>
		<stop  offset="0.3049" style="stop-color:#86542B"/>
		<stop  offset="0.5614" style="stop-color:#FCF6B1"/>
		<stop  offset="0.8363" style="stop-color:#85542B"/>
	</linearGradient>
	<path class="st6" d="M410.24,710.74c-2.04-4.51-2.84-5.17-5.31-5.68c-0.58-0.14-1.24-0.22-1.67-0.22c-0.8-0.15-1.16-0.44-1.16-0.8
		c0-0.51,0.58-0.65,1.53-0.65c3.93,0,8.15,0.22,11.06,0.22c2.55,0,6.48-0.22,12.15-0.22c1.09,0,1.67,0.29,1.67,0.73
		s-0.44,0.73-1.09,0.73c-0.87,0.07-1.31,0.07-1.96,0.22c-1.89,0.29-2.18,1.09-2.18,1.82c0,0.95,0.44,2.4,1.67,5.53
		c3.42,8.88,8.01,19.72,11.28,28.23c2.98-6.69,10.55-24.52,12.95-31.36c0.36-0.8,0.58-1.75,0.58-2.4c0-0.95-0.44-1.46-1.75-1.67
		c-0.87-0.22-2.11-0.29-2.91-0.36c-0.95-0.07-1.31-0.29-1.31-0.73s0.36-0.73,1.6-0.73c4.8,0,8.37,0.22,9.46,0.22
		c1.09,0,5.82-0.22,8.08-0.22c1.09,0,1.6,0.22,1.6,0.73c0,0.51-0.36,0.73-1.31,0.73c-0.87,0.07-2.04,0.07-3.2,0.65
		c-1.53,0.73-2.55,2.26-4.58,6.55c-2.91,6.26-5.53,12.15-9.68,21.39c-4.66,10.33-7.79,16.96-9.68,20.74
		c-2.11,4.29-2.84,5.24-3.78,5.24c-1.02,0-1.6-1.02-2.98-4.37L410.24,710.74z"/>
	<linearGradient id="SVGID_8_" gradientUnits="userSpaceOnUse" x1="-270.2107" y1="790.1601" x2="1092.3235" y2="689.4647">
		<stop  offset="0.1251" style="stop-color:#7B552A"/>
		<stop  offset="0.2705" style="stop-color:#C19544"/>
		<stop  offset="0.3049" style="stop-color:#86542B"/>
		<stop  offset="0.5614" style="stop-color:#FCF6B1"/>
		<stop  offset="0.8363" style="stop-color:#85542B"/>
	</linearGradient>
	<path class="st7" d="M463.43,746.39c-0.44,0-0.66,0.44-0.73,0.65l-1.53,3.71c-0.65,1.6-1.09,3.06-1.09,3.86
		c0,2.11,2.77,2.18,4.44,2.33c0.95,0.07,1.16,0.36,1.16,0.66c0,0.51-0.36,0.8-1.24,0.8c-3.2,0-5.39-0.22-9.1-0.22
		c-0.73,0-4.95,0.22-8.08,0.22c-1.02,0-1.31-0.29-1.31-0.73c0-0.44,0.36-0.73,1.16-0.73c3.13-0.36,4.8-1.24,6.69-5.53l17.47-37.26
		c1.53-3.35,2.26-4.29,3.06-4.29c0.73,0,1.31,0.95,2.55,3.42c1.6,3.57,12.88,27.22,17.25,36.82c2.26,4.66,3.42,6.33,5.89,6.69
		c0.58,0.07,1.09,0.14,1.46,0.14c0.8,0,1.24,0.36,1.24,0.73c0,0.51-0.58,0.73-1.31,0.73c-7.35-0.07-14.92-0.14-18.78-0.22
		c-0.87,0-1.31-0.29-1.31-0.65c0-0.44,0.44-0.58,0.87-0.73c0.58-0.22,1.24-0.29,0.87-1.09l-4-8.95c-0.07-0.22-0.36-0.36-0.58-0.36
		H463.43z M476.39,740.64c0.44,0,0.44-0.15,0.36-0.29L471,727.33c-0.22-0.36-0.22-0.22-0.36,0.07l-5.39,12.95
		c-0.07,0.22,0.07,0.29,0.22,0.29H476.39z"/>
	<linearGradient id="SVGID_9_" gradientUnits="userSpaceOnUse" x1="-269.9602" y1="793.5496" x2="1092.574" y2="692.8542">
		<stop  offset="0.1251" style="stop-color:#7B552A"/>
		<stop  offset="0.2705" style="stop-color:#C19544"/>
		<stop  offset="0.3049" style="stop-color:#86542B"/>
		<stop  offset="0.5614" style="stop-color:#FCF6B1"/>
		<stop  offset="0.8363" style="stop-color:#85542B"/>
	</linearGradient>
	<path class="st8" d="M506.58,729c0-9.82-0.07-10.77-0.22-12.81c-0.15-2.69-1.31-3.57-2.69-3.71c-1.16-0.22-1.75-0.22-2.26-0.29
		c-0.8,0-1.09-0.36-1.09-0.73c0-0.36,0.22-0.73,1.31-0.73c2.62,0,9.31,0.22,10.11,0.22c1.09,0,7.93-0.22,11.21-0.22
		c6.55,0,11.06,0.66,13.68,2.11c3.49,1.75,6.19,4.88,6.19,9.82s-3.35,8.95-8.66,12.37c3.42,5.24,8.08,12.15,12.08,16.59
		c3.35,3.86,4.88,4.8,6.91,5.09c0.65,0.15,1.24,0.15,1.75,0.22c0.66,0.07,1.02,0.44,1.02,0.8c0,0.58-0.73,0.65-1.31,0.65h-5.68
		c-7.57,0-10.7-0.73-13.1-2.26c-1.89-1.24-3.93-3.78-6.26-7.57c-3.06-5.09-4.15-7.2-5.39-9.1c-0.07-0.22-0.36-0.36-0.73-0.36
		l-4.37-0.07c-0.29,0-0.51,0.15-0.51,0.51v3.86c0,4.73,0.15,7.79,0.29,9.68c0.15,1.6,0.51,2.91,2.47,3.42
		c0.87,0.29,2.18,0.36,2.98,0.44c1.16,0.07,1.16,0.44,1.16,0.8c0,0.36-0.29,0.65-1.24,0.65c-4.44,0-12.15-0.22-12.52-0.22
		c-0.73,0-7.57,0.22-9.68,0.22c-1.09,0-1.31-0.36-1.31-0.8c0-0.36,0.44-0.66,1.16-0.66c0.58-0.07,1.53-0.07,2.26-0.22
		c1.31-0.29,1.89-1.38,2.04-3.64c0.29-2.62,0.36-6.84,0.36-13.03V729z M518.59,732.93c0,0.44,0.29,0.73,0.58,0.95
		c1.24,0.65,3.49,0.87,5.39,0.87c1.46,0,2.98-0.29,4-1.02c1.16-0.87,2.26-3.42,2.26-7.5c0-8.95-6.11-11.06-9.39-11.06
		c-0.95,0-2.04,0-2.4,0.22c-0.29,0.15-0.44,0.22-0.44,0.73V732.93z"/>
	<linearGradient id="SVGID_10_" gradientUnits="userSpaceOnUse" x1="-269.6664" y1="797.5253" x2="1092.8678" y2="696.8299">
		<stop  offset="0.1251" style="stop-color:#7B552A"/>
		<stop  offset="0.2705" style="stop-color:#C19544"/>
		<stop  offset="0.3049" style="stop-color:#86542B"/>
		<stop  offset="0.5614" style="stop-color:#FCF6B1"/>
		<stop  offset="0.8363" style="stop-color:#85542B"/>
	</linearGradient>
	<path class="st9" d="M600.3,751.92c0,4.15-0.14,4.59-1.46,5.02c-3.27,1.09-9.97,2.33-15.94,2.33c-18.92,0-31.36-8.15-31.36-24.74
		c0-10.62,5.82-17.17,11.93-20.52c6.77-3.86,14.12-4.15,18.99-4.15c3.78,0,7.13,0.36,10.26,0.8c2.4,0.29,4.59,0.73,6.48,0.8
		c0.66,0,0.8,0.44,0.58,1.02c-0.07,0.58-0.8,3.35-0.8,11.86c0,1.02-0.29,1.38-0.8,1.38c-0.51,0-0.65-0.66-0.73-1.16
		c-0.14-0.8-0.22-1.6-0.58-2.55c-0.8-4.88-6.77-7.93-16.23-7.93c-5.09,0-8.88,1.53-11.42,4.66c-2.26,2.76-3.71,7.2-3.71,13.03
		c0,10.77,4.88,23.14,17.83,23.14c1.31,0,3.13-0.14,3.86-0.87c0.44-0.29,0.65-0.8,0.65-1.53v-3.2c0-2.47,0-4.88,0.07-7.28
		c0-3.93-0.87-5.24-3.27-5.53c-0.87-0.15-1.75-0.22-2.84-0.29c-0.65-0.07-1.02-0.51-1.02-0.87c0-0.36,0.36-0.58,1.38-0.58
		c4.51,0,9.68,0.15,11.35,0.15c2.55,0,6.84-0.15,10.84-0.15c0.87,0,1.46,0.15,1.46,0.66c0,0.44-0.29,0.58-1.02,0.8
		c-0.29,0-1.24,0.07-1.75,0.15c-1.67,0.22-2.33,0.87-2.47,3.06c-0.29,2.18-0.29,5.46-0.29,8.52V751.92z"/>
	<linearGradient id="SVGID_11_" gradientUnits="userSpaceOnUse" x1="-269.3574" y1="801.7067" x2="1093.1768" y2="701.0114">
		<stop  offset="0.1251" style="stop-color:#7B552A"/>
		<stop  offset="0.2705" style="stop-color:#C19544"/>
		<stop  offset="0.3049" style="stop-color:#86542B"/>
		<stop  offset="0.5614" style="stop-color:#FCF6B1"/>
		<stop  offset="0.8363" style="stop-color:#85542B"/>
	</linearGradient>
	<path class="st10" d="M620.53,746.39c-0.44,0-0.65,0.44-0.73,0.65l-1.53,3.71c-0.65,1.6-1.09,3.06-1.09,3.86
		c0,2.11,2.76,2.18,4.44,2.33c0.94,0.07,1.16,0.36,1.16,0.66c0,0.51-0.36,0.8-1.24,0.8c-3.2,0-5.39-0.22-9.1-0.22
		c-0.73,0-4.95,0.22-8.08,0.22c-1.02,0-1.31-0.29-1.31-0.73c0-0.44,0.36-0.73,1.16-0.73c3.13-0.36,4.8-1.24,6.7-5.53l17.46-37.26
		c1.53-3.35,2.26-4.29,3.06-4.29c0.73,0,1.31,0.95,2.55,3.42c1.6,3.57,12.88,27.22,17.25,36.82c2.26,4.66,3.42,6.33,5.89,6.69
		c0.58,0.07,1.09,0.14,1.46,0.14c0.8,0,1.24,0.36,1.24,0.73c0,0.51-0.58,0.73-1.31,0.73c-7.35-0.07-14.92-0.14-18.78-0.22
		c-0.87,0-1.31-0.29-1.31-0.65c0-0.44,0.44-0.58,0.87-0.73c0.58-0.22,1.24-0.29,0.87-1.09l-4-8.95c-0.07-0.22-0.36-0.36-0.58-0.36
		H620.53z M633.48,740.64c0.44,0,0.44-0.15,0.37-0.29l-5.75-13.03c-0.22-0.36-0.22-0.22-0.37,0.07l-5.38,12.95
		c-0.07,0.22,0.07,0.29,0.22,0.29H633.48z"/>
	<linearGradient id="SVGID_12_" gradientUnits="userSpaceOnUse" x1="-269.1549" y1="804.4465" x2="1093.3793" y2="703.7512">
		<stop  offset="0.1251" style="stop-color:#7B552A"/>
		<stop  offset="0.2705" style="stop-color:#C19544"/>
		<stop  offset="0.3049" style="stop-color:#86542B"/>
		<stop  offset="0.5614" style="stop-color:#FCF6B1"/>
		<stop  offset="0.8363" style="stop-color:#85542B"/>
	</linearGradient>
	<path class="st11" d="M662.36,757.45c-1.16-0.44-1.46-1.38-1.46-2.55c0-5.46,0.15-7.79,0.36-9.75c0.15-1.16,0.51-1.38,0.87-1.38
		c0.37,0,0.58,0.29,0.65,0.95c0.07,0.58,0.07,1.09,0.22,1.67c0.87,5.46,6.18,8.59,11.5,8.59c5.89,0,7.71-2.76,7.71-5.31
		c0-2.55-0.87-4.58-6.4-8.3l-4-2.69c-7.79-5.39-9.9-9.61-9.9-15.43c0.07-7.28,6.4-13.39,16.95-13.39c2.98,0,4.95,0.14,7.93,0.73
		c1.02,0.22,2.18,0.44,3.27,0.73c0.65,0.14,0.8,0.36,0.8,0.95c-0.07,2.33-0.22,3.42-0.22,9.24c0,1.09-0.22,1.53-0.73,1.53
		c-0.36,0-0.73-0.14-0.87-1.24c-0.07-0.73-0.29-2.11-1.02-3.49c-1.31-2.33-4.73-4.51-9.1-4.51c-5.46,0-7.2,3.06-7.2,5.75
		c0,2.76,1.31,4.66,4.95,6.91l3.71,2.33c9.39,5.89,12.01,9.46,12.01,15.79c0,5.02-2.26,9.39-7.28,12.15
		c-3.86,2.18-8.37,2.55-11.79,2.55C668.26,759.27,664.91,758.55,662.36,757.45z"/>
	<linearGradient id="SVGID_13_" gradientUnits="userSpaceOnUse" x1="-269.0105" y1="806.3999" x2="1093.5237" y2="705.7045">
		<stop  offset="0.1251" style="stop-color:#7B552A"/>
		<stop  offset="0.2705" style="stop-color:#C19544"/>
		<stop  offset="0.3049" style="stop-color:#86542B"/>
		<stop  offset="0.5614" style="stop-color:#FCF6B1"/>
		<stop  offset="0.8363" style="stop-color:#85542B"/>
	</linearGradient>
	<path class="st12" d="M714.39,742.83c0-8.01,5.89-12.88,12.3-15.94c-3.06-4.29-3.42-7.86-3.42-10.7c0-6.91,6.11-13.83,18.99-13.83
		c4.51,0,8.01,0.8,10.12,1.67c1.17,0.51,1.46,1.09,1.46,2.11c0,1.6-0.58,7.71-0.8,9.97c-0.15,1.09-0.44,1.46-0.87,1.46
		c-0.44,0-0.73-0.44-0.73-1.46c-0.07-2.25-0.73-4.29-2.47-6.33c-1.46-1.67-4.15-3.35-7.5-3.35c-2.76,0-6.4,1.31-6.4,6.7
		c0,5.82,4.51,10.48,10.99,17.83c1.96,2.26,10.99,11.06,11.64,11.72c2.04-3.2,3.71-6.62,3.71-11.06c0-1.89-0.8-2.91-1.89-3.49
		c-0.8-0.51-1.96-0.73-2.69-0.8c-0.87-0.22-1.31-0.44-1.31-0.87c0-0.66,1.02-0.66,1.6-0.66c3.05,0,8.15,0.36,10.48,0.73
		c1.53,0.29,2.33,0.66,2.4,2.4c0.07,4.66-3.2,11.72-8.3,17.1c3.42,3.06,7.79,6.48,9.68,7.71c2.62,1.75,4.37,2.69,6.99,2.91
		c1.16,0.15,1.46,0.44,1.46,0.95c0,0.58-0.58,0.8-2.04,0.8c-0.95,0-11.35-0.14-12.3-0.14c-6.55,0-9.61-0.95-13.83-4.15
		c-3.57,2.77-8.59,5.31-16.3,5.31C718.83,759.42,714.39,749.67,714.39,742.83z M748.01,750.9c-6.99-6.55-12.73-12.88-18.63-20.16
		c-0.94,1.09-2.04,3.49-2.04,7.57c0,9.1,6.04,14.55,12.88,14.55C743.43,752.87,746.12,752.07,748.01,750.9z"/>
	<linearGradient id="SVGID_14_" gradientUnits="userSpaceOnUse" x1="-268.7125" y1="810.4327" x2="1093.8217" y2="709.7373">
		<stop  offset="0.1251" style="stop-color:#7B552A"/>
		<stop  offset="0.2705" style="stop-color:#C19544"/>
		<stop  offset="0.3049" style="stop-color:#86542B"/>
		<stop  offset="0.5614" style="stop-color:#FCF6B1"/>
		<stop  offset="0.8363" style="stop-color:#85542B"/>
	</linearGradient>
	<path class="st13" d="M825.36,737.3c0,5.68,0,12.44,0.37,15.5c0.14,1.89,0.65,3.42,2.84,3.78c0.94,0.15,1.82,0.22,3.13,0.36
		c1.17,0.07,1.46,0.29,1.46,0.8c0,0.44-0.36,0.65-1.67,0.65c-4.95,0-12.01-0.22-13.17-0.22c-1.24,0-8.29,0.22-10.7,0.22
		c-1.16,0-1.67-0.14-1.67-0.73c0-0.51,0.58-0.73,1.46-0.73c0.73-0.07,1.53-0.14,2.33-0.29c1.6-0.29,2.11-1.89,2.33-4
		c0.29-3.06,0.44-8.29,0.44-15.35v-28.53c-2.84,0-7.35-0.07-10.99,0.15c-4.07,0.22-5.68,1.16-6.62,3.71
		c-0.37,0.8-0.51,1.24-0.65,1.67c-0.15,0.58-0.37,1.16-0.87,1.16c-0.65,0-0.65-0.58-0.58-1.46c0.29-2.98,1.09-6.91,1.6-9.68
		c0.15-1.09,0.37-1.82,0.8-1.82c0.51,0,0.8,0.22,2.48,0.58c1.31,0.29,5.31,0.51,8.08,0.51h31.65c2.26,0,3.57-0.14,4.59-0.29
		c1.16-0.22,1.75-0.44,2.26-0.44c0.65,0,0.73,0.44,0.73,2.26c0,1.02-0.44,7.79-0.51,9.61c-0.07,1.02-0.29,1.46-0.73,1.46
		c-0.58,0-0.73-0.44-0.8-1.31c-0.07-0.8-0.07-1.09-0.15-1.46c-0.29-2.26-1.38-4-5.68-4.29c-2.4-0.22-6.19-0.36-11.72-0.36V737.3z"/>
	<linearGradient id="SVGID_15_" gradientUnits="userSpaceOnUse" x1="-268.1161" y1="818.5023" x2="1094.4181" y2="717.8069">
		<stop  offset="0.1251" style="stop-color:#7B552A"/>
		<stop  offset="0.2705" style="stop-color:#C19544"/>
		<stop  offset="0.3049" style="stop-color:#86542B"/>
		<stop  offset="0.5614" style="stop-color:#FCF6B1"/>
		<stop  offset="0.8363" style="stop-color:#85542B"/>
	</linearGradient>
	<path class="st14" d="M865.01,738.53c0,8.59,1.17,12.15,5.02,14.63c2.55,1.46,4.59,1.53,5.97,1.53c1.89,0,4.59-0.36,6.7-2.04
		c3.86-2.98,3.71-9.82,3.71-16.23V729c0-9.24,0-10.62-0.15-12.66c-0.15-2.4-0.65-3.49-2.76-3.86c-0.8-0.15-0.95-0.15-2.4-0.29
		c-0.95-0.07-1.16-0.44-1.16-0.8c0-0.44,0.36-0.66,1.46-0.66c3.86,0,7.71,0.22,9.1,0.22c1.16,0,5.46-0.22,8.81-0.22
		c1.09,0,1.38,0.29,1.38,0.73c0,0.29-0.22,0.58-1.09,0.73c-0.65,0.07-1.16,0.07-2.04,0.29c-1.75,0.29-2.26,1.16-2.4,3.86
		c-0.14,2.04-0.22,3.42-0.22,12.66v6.04c0,7.28-0.29,14.99-6.84,20.08c-3.93,3.06-9.02,4.15-13.54,4.15
		c-6.33,0-11.93-1.09-15.79-4.22c-3.57-2.77-6.11-7.35-6.11-16.45V729c0-9.82,0-11.42-0.15-13.46c-0.15-1.6-0.51-2.55-1.96-2.91
		c-0.73-0.22-2.33-0.36-2.84-0.44c-1.02-0.14-1.17-0.44-1.17-0.8c0-0.36,0.29-0.66,1.6-0.66c2.62,0,9.82,0.22,10.04,0.22
		c0.36,0,8.88-0.22,11.21-0.22c1.24,0,1.6,0.29,1.6,0.66c0,0.44-0.22,0.65-1.09,0.8c-0.58,0.07-1.67,0.15-2.33,0.29
		c-1.82,0.36-2.26,1.75-2.4,3.71c-0.15,2.04-0.15,5.09-0.15,12.81V738.53z"/>
	<linearGradient id="SVGID_16_" gradientUnits="userSpaceOnUse" x1="-267.8247" y1="822.445" x2="1094.7095" y2="721.7496">
		<stop  offset="0.1251" style="stop-color:#7B552A"/>
		<stop  offset="0.2705" style="stop-color:#C19544"/>
		<stop  offset="0.3049" style="stop-color:#86542B"/>
		<stop  offset="0.5614" style="stop-color:#FCF6B1"/>
		<stop  offset="0.8363" style="stop-color:#85542B"/>
	</linearGradient>
	<path class="st15" d="M908.52,729c0-10.48-0.07-11.64-0.22-13.68c-0.14-1.6-0.8-2.62-2.33-2.91c-0.58-0.15-1.31-0.15-1.97-0.22
		c-0.94-0.07-1.09-0.44-1.09-0.8c0-0.36,0.36-0.66,1.38-0.66c3.93,0,6.99,0.22,9.75,0.22c1.17,0,17.9-0.07,18.92-0.07
		c1.24,0,2.62-0.07,3.71-0.29c0.44-0.15,0.8-0.22,1.02-0.22c0.37,0,0.51,0.29,0.44,0.66c-0.15,0.8-0.37,1.6-0.51,3.06
		c-0.07,1.6-0.14,2.91-0.36,6.84c0,0.51-0.29,1.02-0.73,1.02c-0.37,0-0.65-0.29-0.73-0.87c-0.15-0.87-0.15-1.38-0.37-2.33
		c-0.36-1.46-1.16-2.33-4.29-2.62c-2.4-0.14-7.71-0.29-9.75-0.29c-0.36,0-0.51,0.22-0.51,0.65v13.32c0,0.44,0.07,0.58,0.51,0.58
		c1.96,0,6.48,0,9.02-0.07c3.57-0.15,4.44-0.36,5.24-1.6c0.29-0.58,0.58-0.8,0.87-0.8c0.44,0,0.51,0.44,0.51,0.8
		c0,0.73-0.44,3.49-0.51,5.82c-0.07,1.38-0.15,4.73-0.15,5.46c0,0.87-0.22,1.09-0.65,1.09c-0.36,0-0.65-0.29-0.73-1.02
		c-0.07-0.36-0.07-0.8-0.15-1.24c-0.36-1.96-1.09-3.13-4.51-3.35c-2.04-0.14-6.99-0.22-9.02-0.22c-0.36,0-0.44,0.15-0.44,0.51v4.58
		c0,2.11-0.07,5.09,0,7.64c0.07,4.44,0.87,5.46,8.29,5.46c1.67,0,4.22-0.07,6.04-0.73c1.82-0.73,2.55-2.26,3.13-5.17
		c0.15-0.73,0.44-1.09,0.87-1.09c0.51,0,0.58,0.51,0.58,1.31c0,2.76-0.65,7.86-0.94,9.1c-0.51,1.6-1.02,1.67-3.42,1.67
		c-9.75,0-14.41-0.36-21.32-0.36c-3.06,0-6.18,0.22-9.9,0.22c-1.24,0-1.53-0.36-1.53-0.8c0-0.29,0.22-0.66,1.31-0.66
		c0.65-0.07,1.17-0.07,1.89-0.22c2.11-0.36,2.33-2.84,2.55-7.28c0-2.4,0.07-5.89,0.07-9.39V729z"/>
	<linearGradient id="SVGID_17_" gradientUnits="userSpaceOnUse" x1="-267.6083" y1="825.3739" x2="1094.9259" y2="724.6785">
		<stop  offset="0.1251" style="stop-color:#7B552A"/>
		<stop  offset="0.2705" style="stop-color:#C19544"/>
		<stop  offset="0.3049" style="stop-color:#86542B"/>
		<stop  offset="0.5614" style="stop-color:#FCF6B1"/>
		<stop  offset="0.8363" style="stop-color:#85542B"/>
	</linearGradient>
	<path class="st16" d="M947.08,757.45c-1.16-0.44-1.46-1.38-1.46-2.55c0-5.46,0.15-7.79,0.37-9.75c0.15-1.16,0.51-1.38,0.87-1.38
		c0.36,0,0.58,0.29,0.65,0.95c0.07,0.58,0.07,1.09,0.22,1.67c0.87,5.46,6.18,8.59,11.5,8.59c5.89,0,7.72-2.76,7.72-5.31
		c0-2.55-0.87-4.58-6.4-8.3l-4-2.69c-7.79-5.39-9.9-9.61-9.9-15.43c0.07-7.28,6.4-13.39,16.95-13.39c2.98,0,4.95,0.14,7.93,0.73
		c1.02,0.22,2.18,0.44,3.28,0.73c0.65,0.14,0.8,0.36,0.8,0.95c-0.07,2.33-0.22,3.42-0.22,9.24c0,1.09-0.22,1.53-0.73,1.53
		c-0.37,0-0.73-0.14-0.87-1.24c-0.07-0.73-0.29-2.11-1.02-3.49c-1.31-2.33-4.73-4.51-9.1-4.51c-5.46,0-7.2,3.06-7.2,5.75
		c0,2.76,1.31,4.66,4.95,6.91l3.71,2.33c9.39,5.89,12.01,9.46,12.01,15.79c0,5.02-2.25,9.39-7.27,12.15
		c-3.86,2.18-8.37,2.55-11.79,2.55C952.98,759.27,949.63,758.55,947.08,757.45z"/>
	<linearGradient id="SVGID_18_" gradientUnits="userSpaceOnUse" x1="-267.4356" y1="827.71" x2="1095.0985" y2="727.0146">
		<stop  offset="0.1251" style="stop-color:#7B552A"/>
		<stop  offset="0.2705" style="stop-color:#C19544"/>
		<stop  offset="0.3049" style="stop-color:#86542B"/>
		<stop  offset="0.5614" style="stop-color:#FCF6B1"/>
		<stop  offset="0.8363" style="stop-color:#85542B"/>
	</linearGradient>
	<path class="st17" d="M1008.72,740.06c0,4.8,0.07,10.41,0.29,13.1c0.15,1.6,0.66,3.2,2.62,3.49c0.8,0.15,1.53,0.22,2.62,0.29
		c1.17,0.15,1.46,0.44,1.46,0.87c0,0.36-0.36,0.58-1.53,0.58c-4.51,0-11.35-0.22-12.3-0.22c-0.94,0-7.93,0.22-9.9,0.22
		c-1.09,0-1.53-0.14-1.53-0.65c0-0.51,0.58-0.73,1.31-0.8c0.65-0.07,1.31-0.07,2.11-0.22c1.46-0.29,1.89-1.53,2.11-3.35
		c0.29-2.69,0.29-7.13,0.29-13.32v-24.23c-2.47,0-6.69-0.07-9.9,0.15c-3.57,0.22-4.8,1.09-5.6,3.64c-0.15,0.44-0.29,0.95-0.51,1.38
		c-0.15,0.44-0.37,0.95-0.8,0.95c-0.51,0-0.65-0.58-0.58-1.31c0.36-3.06,0.94-6.33,1.45-9.24c0.15-0.95,0.51-1.38,0.87-1.38
		c0.37,0,0.87,0.29,1.89,0.44c0.94,0.22,4.95,0.51,7.42,0.51h29.11c1.89,0,3.05-0.15,3.93-0.29c1.24-0.22,1.75-0.36,2.11-0.36
		c0.73,0,0.65,0.36,0.65,2.18c0,0.73-0.44,7.28-0.51,8.8c-0.07,1.02-0.44,1.31-0.8,1.31c-0.36,0-0.65-0.36-0.73-1.09
		c0-0.8-0.07-1.16-0.07-1.53c-0.22-1.97-1.02-3.35-4.44-3.71c-2.33-0.15-5.82-0.44-11.06-0.44V740.06z"/>
	<linearGradient id="SVGID_19_" gradientUnits="userSpaceOnUse" x1="-267.1108" y1="832.1058" x2="1095.4233" y2="731.4104">
		<stop  offset="0.1251" style="stop-color:#7B552A"/>
		<stop  offset="0.2705" style="stop-color:#C19544"/>
		<stop  offset="0.3049" style="stop-color:#86542B"/>
		<stop  offset="0.5614" style="stop-color:#FCF6B1"/>
		<stop  offset="0.8363" style="stop-color:#85542B"/>
	</linearGradient>
	<path class="st18" d="M1034.11,746.39c-0.44,0-0.65,0.44-0.73,0.65l-1.53,3.71c-0.65,1.6-1.09,3.06-1.09,3.86
		c0,2.11,2.76,2.18,4.44,2.33c0.94,0.07,1.16,0.36,1.16,0.66c0,0.51-0.36,0.8-1.24,0.8c-3.2,0-5.39-0.22-9.1-0.22
		c-0.73,0-4.95,0.22-8.08,0.22c-1.02,0-1.31-0.29-1.31-0.73c0-0.44,0.36-0.73,1.16-0.73c3.13-0.36,4.8-1.24,6.7-5.53l17.46-37.26
		c1.53-3.35,2.26-4.29,3.06-4.29c0.73,0,1.31,0.95,2.55,3.42c1.6,3.57,12.88,27.22,17.25,36.82c2.26,4.66,3.42,6.33,5.89,6.69
		c0.58,0.07,1.09,0.14,1.46,0.14c0.8,0,1.24,0.36,1.24,0.73c0,0.51-0.58,0.73-1.31,0.73c-7.35-0.07-14.92-0.14-18.78-0.22
		c-0.87,0-1.31-0.29-1.31-0.65c0-0.44,0.44-0.58,0.87-0.73c0.58-0.22,1.24-0.29,0.87-1.09l-4-8.95c-0.07-0.22-0.36-0.36-0.58-0.36
		H1034.11z M1047.06,740.64c0.44,0,0.44-0.15,0.37-0.29l-5.75-13.03c-0.22-0.36-0.22-0.22-0.37,0.07l-5.38,12.95
		c-0.07,0.22,0.07,0.29,0.22,0.29H1047.06z"/>
</g>
<g>
	<linearGradient id="SVGID_20_" gradientUnits="userSpaceOnUse" x1="15.6516" y1="790.7141" x2="995.0714" y2="826.1148">
		<stop  offset="0.1251" style="stop-color:#7B552A"/>
		<stop  offset="0.2705" style="stop-color:#C19544"/>
		<stop  offset="0.3049" style="stop-color:#86542B"/>
		<stop  offset="0.5614" style="stop-color:#FCF6B1"/>
		<stop  offset="0.8363" style="stop-color:#85542B"/>
	</linearGradient>
	<path class="st19" d="M292.54,797.82c0-5.71,0-6.74-0.07-7.91c-0.07-1.25-0.37-1.83-1.58-2.09c-0.29-0.07-0.92-0.11-1.25-0.11
		c-0.15,0-0.29-0.07-0.29-0.22c0-0.22,0.18-0.29,0.59-0.29c0.84,0,1.83,0,2.64,0.04l1.5,0.07c0.26,0,7.55,0,8.39-0.04
		c0.7-0.04,1.28-0.11,1.58-0.18c0.18-0.04,0.33-0.18,0.51-0.18c0.11,0,0.15,0.15,0.15,0.33c0,0.26-0.18,0.7-0.29,1.72
		c-0.04,0.37-0.11,1.98-0.18,2.42c-0.04,0.18-0.11,0.4-0.26,0.4c-0.22,0-0.29-0.18-0.29-0.48c0-0.26-0.04-0.88-0.22-1.32
		c-0.26-0.59-0.62-1.03-2.6-1.25c-0.62-0.07-4.62-0.11-5.02-0.11c-0.15,0-0.22,0.11-0.22,0.37v10.11c0,0.26,0.04,0.37,0.22,0.37
		c0.48,0,4.98,0,5.82-0.07c0.88-0.07,1.39-0.15,1.72-0.51c0.26-0.29,0.4-0.48,0.55-0.48c0.11,0,0.18,0.07,0.18,0.29
		c0,0.22-0.18,0.84-0.29,2.05c-0.07,0.73-0.15,2.09-0.15,2.34c0,0.29,0,0.7-0.26,0.7c-0.18,0-0.26-0.15-0.26-0.33
		c0-0.37,0-0.73-0.15-1.21c-0.15-0.51-0.48-1.14-1.9-1.28c-0.99-0.11-4.62-0.18-5.24-0.18c-0.18,0-0.26,0.11-0.26,0.26v3.22
		c0,1.25-0.04,5.49,0,6.26c0.11,2.53,0.66,3,4.25,3c0.95,0,2.56,0,3.52-0.4c0.95-0.4,1.39-1.14,1.65-2.64
		c0.07-0.4,0.15-0.55,0.33-0.55c0.22,0,0.22,0.29,0.22,0.55c0,0.29-0.29,2.78-0.48,3.55c-0.26,0.95-0.55,0.95-1.98,0.95
		c-2.75,0-4.76-0.07-6.19-0.11c-1.43-0.07-2.31-0.11-2.86-0.11c-0.07,0-0.7,0-1.46,0.04c-0.73,0-1.58,0.07-2.12,0.07
		c-0.4,0-0.59-0.07-0.59-0.29c0-0.11,0.07-0.22,0.29-0.22c0.33,0,0.77-0.07,1.1-0.15c0.73-0.15,0.92-0.95,1.06-2.02
		c0.18-1.54,0.18-4.43,0.18-7.95V797.82z"/>
	<linearGradient id="SVGID_21_" gradientUnits="userSpaceOnUse" x1="15.5969" y1="792.2285" x2="995.0167" y2="827.6292">
		<stop  offset="0.1251" style="stop-color:#7B552A"/>
		<stop  offset="0.2705" style="stop-color:#C19544"/>
		<stop  offset="0.3049" style="stop-color:#86542B"/>
		<stop  offset="0.5614" style="stop-color:#FCF6B1"/>
		<stop  offset="0.8363" style="stop-color:#85542B"/>
	</linearGradient>
	<path class="st20" d="M309.87,814.45c-0.44-0.22-0.48-0.33-0.48-1.17c0-1.54,0.15-2.78,0.18-3.3c0-0.33,0.07-0.51,0.26-0.51
		s0.29,0.11,0.29,0.37c0,0.26,0,0.7,0.11,1.14c0.51,2.27,2.93,3.08,5.09,3.08c3.19,0,4.84-1.79,4.84-4.14c0-2.23-1.21-3.3-4.07-5.42
		l-1.46-1.1c-3.48-2.6-4.62-4.51-4.62-6.67c0-3.66,2.89-5.86,7.14-5.86c1.28,0,2.56,0.18,3.33,0.37c0.62,0.15,0.88,0.15,1.14,0.15
		c0.26,0,0.33,0.04,0.33,0.22c0,0.15-0.15,1.17-0.15,3.3c0,0.48-0.04,0.7-0.26,0.7c-0.22,0-0.26-0.15-0.29-0.4
		c-0.04-0.37-0.29-1.21-0.48-1.54c-0.22-0.37-1.28-1.54-4.18-1.54c-2.34,0-4.29,1.17-4.29,3.37c0,1.98,0.99,3.11,4.18,5.27
		l0.92,0.62c3.92,2.67,5.27,4.83,5.27,7.51c0,1.83-0.7,3.81-3,5.31c-1.35,0.88-3.37,1.1-5.13,1.1
		C313.06,815.3,311.19,815.08,309.87,814.45z"/>
	<linearGradient id="SVGID_22_" gradientUnits="userSpaceOnUse" x1="15.6165" y1="791.6855" x2="995.0363" y2="827.0863">
		<stop  offset="0.1251" style="stop-color:#7B552A"/>
		<stop  offset="0.2705" style="stop-color:#C19544"/>
		<stop  offset="0.3049" style="stop-color:#86542B"/>
		<stop  offset="0.5614" style="stop-color:#FCF6B1"/>
		<stop  offset="0.8363" style="stop-color:#85542B"/>
	</linearGradient>
	<path class="st21" d="M329.58,800.35c0-4.83,0-5.71-0.07-6.7c-0.07-1.06-0.26-1.58-1.32-1.72c-0.26-0.04-0.81-0.07-1.1-0.07
		c-0.11,0-0.26-0.15-0.26-0.26c0-0.18,0.15-0.26,0.51-0.26c1.46,0,3.48,0.07,3.74,0.07c0.7,0,3.11-0.07,4.58-0.07
		c4.14,0,5.6,1.28,6.15,1.76c0.73,0.66,1.61,2.05,1.61,3.74c0,4.47-3.37,7.44-8.32,7.44c-0.18,0-0.73,0-0.92-0.04
		c-0.15,0-0.33-0.15-0.33-0.29c0-0.26,0.18-0.33,0.84-0.33c3.48,0,5.97-2.2,5.97-5.02c0-1.03-0.11-3.04-1.83-4.73
		c-1.68-1.68-3.63-1.5-4.36-1.5c-0.55,0-1.46,0.15-1.79,0.22c-0.18,0.04-0.26,0.26-0.26,0.59v12.67c0,3,0,5.46,0.15,6.74
		c0.11,0.92,0.29,1.5,1.28,1.65c0.44,0.07,1.14,0.15,1.43,0.15c0.18,0,0.26,0.15,0.26,0.26c0,0.15-0.15,0.26-0.51,0.26
		c-1.76,0-3.88-0.11-4.03-0.11c-0.11,0-2.2,0.11-3.19,0.11c-0.33,0-0.51-0.07-0.51-0.26c0-0.11,0.07-0.26,0.26-0.26
		c0.29,0,0.7-0.07,0.99-0.15c0.62-0.15,0.7-0.73,0.84-1.65c0.18-1.28,0.18-3.74,0.18-6.74V800.35z"/>
	<linearGradient id="SVGID_23_" gradientUnits="userSpaceOnUse" x1="15.6496" y1="790.7695" x2="995.0694" y2="826.1702">
		<stop  offset="0.1251" style="stop-color:#7B552A"/>
		<stop  offset="0.2705" style="stop-color:#C19544"/>
		<stop  offset="0.3049" style="stop-color:#86542B"/>
		<stop  offset="0.5614" style="stop-color:#FCF6B1"/>
		<stop  offset="0.8363" style="stop-color:#85542B"/>
	</linearGradient>
	<path class="st22" d="M349.07,800.35c0-4.83,0-5.71-0.07-6.7c-0.07-1.06-0.26-1.58-1.32-1.72c-0.26-0.04-0.81-0.07-1.1-0.07
		c-0.11,0-0.26-0.15-0.26-0.26c0-0.18,0.15-0.26,0.51-0.26c1.46,0,3.55,0.07,3.74,0.07c0.22,0,6.96,0.04,7.69,0
		c0.62-0.04,1.21-0.15,1.47-0.18c0.15-0.04,0.29-0.15,0.44-0.15c0.11,0,0.15,0.15,0.15,0.29c0,0.22-0.18,0.59-0.26,1.47
		c-0.04,0.29-0.11,1.68-0.18,2.05c-0.04,0.15-0.15,0.33-0.29,0.33c-0.18,0-0.26-0.15-0.26-0.4c0-0.22-0.04-0.73-0.18-1.1
		c-0.22-0.51-0.55-0.73-2.31-0.95c-0.55-0.07-4.29-0.11-4.65-0.11c-0.15,0-0.18,0.11-0.18,0.33v8.46c0,0.22,0,0.33,0.18,0.33
		c0.4,0,4.65,0,5.39-0.07c0.77-0.07,1.25-0.11,1.58-0.44c0.22-0.22,0.37-0.4,0.48-0.4s0.18,0.07,0.18,0.26
		c0,0.18-0.18,0.7-0.26,1.72c-0.07,0.62-0.15,1.8-0.15,2.02c0,0.26-0.07,0.59-0.29,0.59c-0.15,0-0.22-0.11-0.22-0.29
		c0-0.29,0-0.62-0.15-1.02c-0.11-0.44-0.4-0.81-1.65-0.95c-0.88-0.11-4.32-0.15-4.87-0.15c-0.18,0-0.22,0.11-0.22,0.22v2.6
		c0,1.06-0.04,4.69,0,5.31c0.07,2.09,0.66,2.49,3.85,2.49c0.84,0,2.38,0,3.22-0.33c0.84-0.37,1.28-0.92,1.47-2.16
		c0.07-0.37,0.15-0.48,0.33-0.48s0.22,0.26,0.22,0.48c0,0.22-0.26,2.34-0.44,3c-0.22,0.81-0.55,0.81-1.79,0.81
		c-2.42,0-4.29-0.07-5.6-0.11c-1.35-0.07-2.2-0.07-2.67-0.07c-0.07,0-0.7,0-1.39,0.04c-0.62,0.04-1.36,0.07-1.87,0.07
		c-0.33,0-0.51-0.07-0.51-0.26c0-0.11,0.07-0.26,0.26-0.26c0.29,0,0.7-0.11,0.99-0.15c0.62-0.11,0.7-0.73,0.84-1.65
		c0.18-1.28,0.18-3.74,0.18-6.74V800.35z"/>
	<linearGradient id="SVGID_24_" gradientUnits="userSpaceOnUse" x1="15.6774" y1="789.9999" x2="995.0972" y2="825.4007">
		<stop  offset="0.1251" style="stop-color:#7B552A"/>
		<stop  offset="0.2705" style="stop-color:#C19544"/>
		<stop  offset="0.3049" style="stop-color:#86542B"/>
		<stop  offset="0.5614" style="stop-color:#FCF6B1"/>
		<stop  offset="0.8363" style="stop-color:#85542B"/>
	</linearGradient>
	<path class="st23" d="M368.05,811.96c-3.15-2.71-3.92-6.26-3.92-9.23c0-2.09,0.77-5.71,3.63-8.5c1.94-1.87,4.87-3.33,9.82-3.33
		c1.28,0,3.11,0.11,4.69,0.37c1.21,0.22,2.23,0.44,3.3,0.48c0.33,0,0.4,0.15,0.4,0.33c0,0.26-0.07,0.62-0.15,1.76
		c-0.04,1.03-0.04,2.75-0.07,3.19c-0.04,0.48-0.18,0.66-0.37,0.66c-0.22,0-0.26-0.22-0.26-0.66c0-1.21-0.51-2.46-1.36-3.11
		c-1.14-0.95-3.48-1.72-6.34-1.72c-4.14,0-6.12,1.1-7.25,2.16c-2.38,2.2-2.89,4.98-2.89,8.13c0,5.97,4.73,11.28,11.61,11.28
		c2.42,0,4.03-0.18,5.31-1.46c0.7-0.7,1.14-2.02,1.25-2.6c0.07-0.33,0.11-0.44,0.33-0.44c0.15,0,0.29,0.22,0.29,0.44
		s-0.44,2.93-0.77,3.99c-0.18,0.59-0.26,0.7-0.81,0.92c-1.32,0.51-3.74,0.7-5.82,0.7C373.83,815.3,370.57,814.16,368.05,811.96z"/>
	<linearGradient id="SVGID_25_" gradientUnits="userSpaceOnUse" x1="15.6972" y1="789.4542" x2="995.1169" y2="824.8549">
		<stop  offset="0.1251" style="stop-color:#7B552A"/>
		<stop  offset="0.2705" style="stop-color:#C19544"/>
		<stop  offset="0.3049" style="stop-color:#86542B"/>
		<stop  offset="0.5614" style="stop-color:#FCF6B1"/>
		<stop  offset="0.8363" style="stop-color:#85542B"/>
	</linearGradient>
	<path class="st24" d="M395.19,805.85c0,3,0,5.46,0.15,6.74c0.11,0.92,0.22,1.5,1.17,1.65c0.48,0.07,1.17,0.15,1.46,0.15
		c0.18,0,0.26,0.15,0.26,0.26c0,0.15-0.15,0.26-0.51,0.26c-1.79,0-3.88-0.11-4.03-0.11c-0.18,0-2.2,0.11-3.19,0.11
		c-0.33,0-0.51-0.07-0.51-0.26c0-0.11,0.07-0.26,0.26-0.26c0.29,0,0.7-0.07,0.99-0.15c0.62-0.15,0.73-0.73,0.84-1.65
		c0.15-1.28,0.18-3.74,0.18-6.74v-5.49c0-4.83,0-5.71-0.07-6.7c-0.07-1.06-0.33-1.54-1.03-1.68c-0.37-0.07-0.77-0.11-0.99-0.11
		c-0.15,0-0.26-0.15-0.26-0.26c0-0.18,0.15-0.26,0.51-0.26c1.06,0,3.08,0.07,3.26,0.07c0.15,0,2.23-0.07,3.22-0.07
		c0.37,0,0.51,0.07,0.51,0.26c0,0.11-0.15,0.26-0.26,0.26c-0.22,0-0.44,0-0.81,0.07c-0.88,0.18-1.06,0.62-1.14,1.72
		c-0.04,0.99-0.04,1.87-0.04,6.7V805.85z"/>
	<linearGradient id="SVGID_26_" gradientUnits="userSpaceOnUse" x1="15.7223" y1="788.7589" x2="995.142" y2="824.1596">
		<stop  offset="0.1251" style="stop-color:#7B552A"/>
		<stop  offset="0.2705" style="stop-color:#C19544"/>
		<stop  offset="0.3049" style="stop-color:#86542B"/>
		<stop  offset="0.5614" style="stop-color:#FCF6B1"/>
		<stop  offset="0.8363" style="stop-color:#85542B"/>
	</linearGradient>
	<path class="st25" d="M409.96,791.96c0.4-1.03,0.55-1.21,0.77-1.21c0.33,0,0.44,0.44,0.77,1.14c0.59,1.32,5.75,14.18,7.73,18.9
		c1.17,2.78,2.05,3.19,2.75,3.41c0.48,0.15,0.95,0.18,1.28,0.18c0.18,0,0.4,0.07,0.4,0.26c0,0.18-0.37,0.26-0.73,0.26
		c-0.48,0-2.86,0-5.09-0.07c-0.62-0.04-1.14-0.04-1.14-0.22c0-0.15,0.07-0.15,0.22-0.22c0.18-0.07,0.51-0.33,0.29-0.84l-2.89-7.14
		c-0.07-0.15-0.11-0.18-0.29-0.18h-7.44c-0.15,0-0.26,0.07-0.33,0.26l-1.83,4.98c-0.29,0.77-0.48,1.54-0.48,2.09
		c0,0.62,0.55,0.84,1.1,0.84h0.29c0.26,0,0.33,0.11,0.33,0.26c0,0.18-0.18,0.26-0.48,0.26c-0.77,0-2.53-0.11-2.89-0.11
		c-0.33,0-1.94,0.11-3.26,0.11c-0.4,0-0.62-0.07-0.62-0.26c0-0.15,0.15-0.26,0.29-0.26c0.22,0,0.7-0.04,0.95-0.07
		c1.47-0.18,2.09-1.28,2.71-2.86L409.96,791.96z M413.55,804.93c0.15,0,0.15-0.07,0.11-0.22l-3.19-8.54c-0.18-0.48-0.37-0.48-0.55,0
		l-3,8.54c-0.04,0.15,0,0.22,0.11,0.22H413.55z"/>
	<linearGradient id="SVGID_27_" gradientUnits="userSpaceOnUse" x1="15.742" y1="788.2146" x2="995.1617" y2="823.6154">
		<stop  offset="0.1251" style="stop-color:#7B552A"/>
		<stop  offset="0.2705" style="stop-color:#C19544"/>
		<stop  offset="0.3049" style="stop-color:#86542B"/>
		<stop  offset="0.5614" style="stop-color:#FCF6B1"/>
		<stop  offset="0.8363" style="stop-color:#85542B"/>
	</linearGradient>
	<path class="st26" d="M429.37,805.92c0,4.58,0.07,6.45,0.66,7c0.51,0.51,1.76,0.73,4.29,0.73c1.69,0,3.11-0.04,3.88-0.95
		c0.4-0.48,0.66-1.14,0.77-1.76c0.04-0.22,0.15-0.4,0.33-0.4c0.15,0,0.22,0.15,0.22,0.48c0,0.33-0.22,2.2-0.48,3.11
		c-0.22,0.73-0.33,0.84-2.05,0.84c-2.31,0-4.1-0.04-5.6-0.11c-1.46-0.04-2.56-0.07-3.52-0.07c-0.15,0-0.7,0-1.32,0.04
		c-0.66,0.04-1.36,0.07-1.87,0.07c-0.33,0-0.51-0.07-0.51-0.26c0-0.11,0.07-0.26,0.26-0.26c0.29,0,0.7-0.07,0.99-0.15
		c0.62-0.15,0.7-0.73,0.84-1.65c0.18-1.28,0.18-3.74,0.18-6.74v-5.49c0-4.83,0-5.71-0.07-6.7c-0.07-1.06-0.26-1.58-1.32-1.72
		c-0.26-0.04-0.81-0.07-1.1-0.07c-0.11,0-0.26-0.15-0.26-0.26c0-0.18,0.15-0.26,0.51-0.26c1.46,0,3.48,0.07,3.66,0.07
		c0.15,0,2.56-0.07,3.55-0.07c0.33,0,0.51,0.07,0.51,0.26c0,0.11-0.15,0.22-0.26,0.22c-0.22,0-0.7,0.04-1.06,0.07
		c-0.95,0.18-1.14,0.66-1.21,1.76c-0.04,0.99-0.04,1.87-0.04,6.7V805.92z"/>
	<linearGradient id="SVGID_28_" gradientUnits="userSpaceOnUse" x1="15.7654" y1="787.5659" x2="995.1852" y2="822.9666">
		<stop  offset="0.1251" style="stop-color:#7B552A"/>
		<stop  offset="0.2705" style="stop-color:#C19544"/>
		<stop  offset="0.3049" style="stop-color:#86542B"/>
		<stop  offset="0.5614" style="stop-color:#FCF6B1"/>
		<stop  offset="0.8363" style="stop-color:#85542B"/>
	</linearGradient>
	<path class="st27" d="M447.5,805.85c0,3,0,5.46,0.15,6.74c0.11,0.92,0.22,1.5,1.17,1.65c0.48,0.07,1.17,0.15,1.46,0.15
		c0.18,0,0.26,0.15,0.26,0.26c0,0.15-0.15,0.26-0.51,0.26c-1.79,0-3.88-0.11-4.03-0.11c-0.18,0-2.2,0.11-3.19,0.11
		c-0.33,0-0.51-0.07-0.51-0.26c0-0.11,0.07-0.26,0.26-0.26c0.29,0,0.7-0.07,0.99-0.15c0.62-0.15,0.73-0.73,0.84-1.65
		c0.15-1.28,0.18-3.74,0.18-6.74v-5.49c0-4.83,0-5.71-0.07-6.7c-0.07-1.06-0.33-1.54-1.03-1.68c-0.37-0.07-0.77-0.11-0.99-0.11
		c-0.15,0-0.26-0.15-0.26-0.26c0-0.18,0.15-0.26,0.51-0.26c1.06,0,3.08,0.07,3.26,0.07c0.15,0,2.23-0.07,3.22-0.07
		c0.37,0,0.51,0.07,0.51,0.26c0,0.11-0.15,0.26-0.26,0.26c-0.22,0-0.44,0-0.81,0.07c-0.88,0.18-1.06,0.62-1.14,1.72
		c-0.04,0.99-0.04,1.87-0.04,6.7V805.85z"/>
	<linearGradient id="SVGID_29_" gradientUnits="userSpaceOnUse" x1="15.7858" y1="787.0025" x2="995.2055" y2="822.4032">
		<stop  offset="0.1251" style="stop-color:#7B552A"/>
		<stop  offset="0.2705" style="stop-color:#C19544"/>
		<stop  offset="0.3049" style="stop-color:#86542B"/>
		<stop  offset="0.5614" style="stop-color:#FCF6B1"/>
		<stop  offset="0.8363" style="stop-color:#85542B"/>
	</linearGradient>
	<path class="st28" d="M454.65,814.45c-0.44-0.22-0.48-0.33-0.48-1.17c0-1.54,0.15-2.78,0.18-3.3c0-0.33,0.07-0.51,0.26-0.51
		s0.29,0.11,0.29,0.37c0,0.26,0,0.7,0.11,1.14c0.51,2.27,2.93,3.08,5.09,3.08c3.19,0,4.84-1.79,4.84-4.14c0-2.23-1.21-3.3-4.07-5.42
		l-1.46-1.1c-3.48-2.6-4.62-4.51-4.62-6.67c0-3.66,2.89-5.86,7.14-5.86c1.28,0,2.56,0.18,3.33,0.37c0.62,0.15,0.88,0.15,1.14,0.15
		c0.26,0,0.33,0.04,0.33,0.22c0,0.15-0.15,1.17-0.15,3.3c0,0.48-0.04,0.7-0.26,0.7c-0.22,0-0.26-0.15-0.29-0.4
		c-0.04-0.37-0.29-1.21-0.48-1.54c-0.22-0.37-1.28-1.54-4.18-1.54c-2.34,0-4.29,1.17-4.29,3.37c0,1.98,0.99,3.11,4.18,5.27
		l0.92,0.62c3.92,2.67,5.27,4.83,5.27,7.51c0,1.83-0.7,3.81-3,5.31c-1.36,0.88-3.37,1.1-5.13,1.1
		C457.84,815.3,455.97,815.08,454.65,814.45z"/>
	<linearGradient id="SVGID_30_" gradientUnits="userSpaceOnUse" x1="15.8189" y1="786.0861" x2="995.2386" y2="821.4868">
		<stop  offset="0.1251" style="stop-color:#7B552A"/>
		<stop  offset="0.2705" style="stop-color:#C19544"/>
		<stop  offset="0.3049" style="stop-color:#86542B"/>
		<stop  offset="0.5614" style="stop-color:#FCF6B1"/>
		<stop  offset="0.8363" style="stop-color:#85542B"/>
	</linearGradient>
	<path class="st29" d="M482.12,805.85c0,3,0,5.46,0.15,6.74c0.11,0.92,0.26,1.5,1.25,1.65c0.44,0.07,1.17,0.15,1.47,0.15
		c0.22,0,0.26,0.15,0.26,0.26c0,0.15-0.15,0.26-0.51,0.26c-1.76,0-3.81-0.11-3.99-0.11c-0.15,0-2.38,0.11-3.33,0.11
		c-0.37,0-0.51-0.07-0.51-0.26c0-0.11,0.07-0.22,0.26-0.22c0.29,0,0.66-0.07,0.95-0.15c0.66-0.15,0.84-0.77,0.95-1.69
		c0.15-1.28,0.15-3.74,0.15-6.74v-13.08l-4.65,0.07c-2.01,0.04-2.78,0.26-3.26,0.99c-0.37,0.55-0.4,0.77-0.51,0.99
		c-0.07,0.26-0.18,0.29-0.33,0.29c-0.07,0-0.22-0.07-0.22-0.26c0-0.33,0.62-3.11,0.7-3.37c0.04-0.18,0.22-0.59,0.33-0.59
		c0.22,0,0.55,0.26,1.43,0.37c0.92,0.11,2.16,0.15,2.53,0.15h12.16c1.06,0,1.79-0.07,2.31-0.15c0.48-0.07,0.77-0.15,0.92-0.15
		c0.15,0,0.15,0.18,0.15,0.37c0,0.95-0.11,3.19-0.11,3.55c0,0.26-0.15,0.4-0.29,0.4c-0.15,0-0.22-0.11-0.26-0.55l-0.04-0.33
		c-0.11-0.95-0.81-1.65-3.88-1.72l-4.03-0.07V805.85z"/>
	<linearGradient id="SVGID_31_" gradientUnits="userSpaceOnUse" x1="15.839" y1="785.531" x2="995.2587" y2="820.9317">
		<stop  offset="0.1251" style="stop-color:#7B552A"/>
		<stop  offset="0.2705" style="stop-color:#C19544"/>
		<stop  offset="0.3049" style="stop-color:#86542B"/>
		<stop  offset="0.5614" style="stop-color:#FCF6B1"/>
		<stop  offset="0.8363" style="stop-color:#85542B"/>
	</linearGradient>
	<path class="st30" d="M499.38,791.96c0.4-1.03,0.55-1.21,0.77-1.21c0.33,0,0.44,0.44,0.77,1.14c0.59,1.32,5.75,14.18,7.73,18.9
		c1.17,2.78,2.05,3.19,2.75,3.41c0.48,0.15,0.95,0.18,1.28,0.18c0.18,0,0.4,0.07,0.4,0.26c0,0.18-0.37,0.26-0.73,0.26
		c-0.48,0-2.86,0-5.09-0.07c-0.62-0.04-1.14-0.04-1.14-0.22c0-0.15,0.07-0.15,0.22-0.22c0.18-0.07,0.51-0.33,0.29-0.84l-2.89-7.14
		c-0.07-0.15-0.11-0.18-0.29-0.18h-7.44c-0.15,0-0.26,0.07-0.33,0.26l-1.83,4.98c-0.29,0.77-0.48,1.54-0.48,2.09
		c0,0.62,0.55,0.84,1.1,0.84h0.29c0.26,0,0.33,0.11,0.33,0.26c0,0.18-0.18,0.26-0.48,0.26c-0.77,0-2.53-0.11-2.89-0.11
		c-0.33,0-1.94,0.11-3.26,0.11c-0.4,0-0.62-0.07-0.62-0.26c0-0.15,0.15-0.26,0.29-0.26c0.22,0,0.7-0.04,0.95-0.07
		c1.46-0.18,2.09-1.28,2.71-2.86L499.38,791.96z M502.97,804.93c0.15,0,0.15-0.07,0.11-0.22l-3.19-8.54c-0.18-0.48-0.37-0.48-0.55,0
		l-3,8.54c-0.04,0.15,0,0.22,0.11,0.22H502.97z"/>
	<linearGradient id="SVGID_32_" gradientUnits="userSpaceOnUse" x1="15.8625" y1="784.8788" x2="995.2823" y2="820.2795">
		<stop  offset="0.1251" style="stop-color:#7B552A"/>
		<stop  offset="0.2705" style="stop-color:#C19544"/>
		<stop  offset="0.3049" style="stop-color:#86542B"/>
		<stop  offset="0.5614" style="stop-color:#FCF6B1"/>
		<stop  offset="0.8363" style="stop-color:#85542B"/>
	</linearGradient>
	<path class="st31" d="M513.48,814.45c-0.44-0.22-0.48-0.33-0.48-1.17c0-1.54,0.15-2.78,0.18-3.3c0-0.33,0.07-0.51,0.26-0.51
		c0.18,0,0.29,0.11,0.29,0.37c0,0.26,0,0.7,0.11,1.14c0.51,2.27,2.93,3.08,5.09,3.08c3.19,0,4.84-1.79,4.84-4.14
		c0-2.23-1.21-3.3-4.07-5.42l-1.46-1.1c-3.48-2.6-4.62-4.51-4.62-6.67c0-3.66,2.89-5.86,7.14-5.86c1.28,0,2.56,0.18,3.33,0.37
		c0.62,0.15,0.88,0.15,1.14,0.15c0.26,0,0.33,0.04,0.33,0.22c0,0.15-0.15,1.17-0.15,3.3c0,0.48-0.04,0.7-0.26,0.7
		c-0.22,0-0.26-0.15-0.29-0.4c-0.04-0.37-0.29-1.21-0.48-1.54c-0.22-0.37-1.28-1.54-4.18-1.54c-2.34,0-4.29,1.17-4.29,3.37
		c0,1.98,0.99,3.11,4.18,5.27l0.92,0.62c3.92,2.67,5.27,4.83,5.27,7.51c0,1.83-0.7,3.81-3,5.31c-1.36,0.88-3.37,1.1-5.13,1.1
		C516.67,815.3,514.8,815.08,513.48,814.45z"/>
	<linearGradient id="SVGID_33_" gradientUnits="userSpaceOnUse" x1="15.9044" y1="783.7199" x2="995.3242" y2="819.1206">
		<stop  offset="0.1251" style="stop-color:#7B552A"/>
		<stop  offset="0.2705" style="stop-color:#C19544"/>
		<stop  offset="0.3049" style="stop-color:#86542B"/>
		<stop  offset="0.5614" style="stop-color:#FCF6B1"/>
		<stop  offset="0.8363" style="stop-color:#85542B"/>
	</linearGradient>
	<path class="st32" d="M544.36,800.35c0-4.83,0-5.71-0.07-6.7c-0.07-1.06-0.26-1.58-1.32-1.72c-0.26-0.04-0.81-0.07-1.1-0.07
		c-0.11,0-0.26-0.15-0.26-0.26c0-0.18,0.15-0.26,0.51-0.26c1.47,0,3.55,0.07,3.74,0.07c0.22,0,6.96,0.04,7.69,0
		c0.62-0.04,1.21-0.15,1.47-0.18c0.15-0.04,0.29-0.15,0.44-0.15c0.11,0,0.15,0.15,0.15,0.29c0,0.22-0.18,0.59-0.26,1.47
		c-0.04,0.29-0.11,1.68-0.18,2.05c-0.04,0.15-0.15,0.33-0.29,0.33c-0.18,0-0.26-0.15-0.26-0.4c0-0.22-0.04-0.73-0.18-1.1
		c-0.22-0.51-0.55-0.73-2.31-0.95c-0.55-0.07-4.29-0.11-4.65-0.11c-0.15,0-0.18,0.11-0.18,0.33v8.46c0,0.22,0,0.33,0.18,0.33
		c0.4,0,4.65,0,5.39-0.07c0.77-0.07,1.25-0.11,1.58-0.44c0.22-0.22,0.37-0.4,0.48-0.4c0.11,0,0.18,0.07,0.18,0.26
		c0,0.18-0.18,0.7-0.26,1.72c-0.07,0.62-0.15,1.8-0.15,2.02c0,0.26-0.07,0.59-0.29,0.59c-0.15,0-0.22-0.11-0.22-0.29
		c0-0.29,0-0.62-0.15-1.02c-0.11-0.44-0.4-0.81-1.65-0.95c-0.88-0.11-4.32-0.15-4.87-0.15c-0.18,0-0.22,0.11-0.22,0.22v2.6
		c0,1.06-0.04,4.69,0,5.31c0.07,2.09,0.66,2.49,3.85,2.49c0.84,0,2.38,0,3.22-0.33c0.84-0.37,1.28-0.92,1.47-2.16
		c0.07-0.37,0.15-0.48,0.33-0.48c0.18,0,0.22,0.26,0.22,0.48c0,0.22-0.26,2.34-0.44,3c-0.22,0.81-0.55,0.81-1.79,0.81
		c-2.42,0-4.29-0.07-5.61-0.11c-1.35-0.07-2.2-0.07-2.67-0.07c-0.07,0-0.7,0-1.39,0.04c-0.62,0.04-1.36,0.07-1.87,0.07
		c-0.33,0-0.51-0.07-0.51-0.26c0-0.11,0.07-0.26,0.26-0.26c0.29,0,0.7-0.11,0.99-0.15c0.62-0.11,0.7-0.73,0.84-1.65
		c0.18-1.28,0.18-3.74,0.18-6.74V800.35z"/>
	<linearGradient id="SVGID_34_" gradientUnits="userSpaceOnUse" x1="15.9309" y1="782.9872" x2="995.3506" y2="818.3879">
		<stop  offset="0.1251" style="stop-color:#7B552A"/>
		<stop  offset="0.2705" style="stop-color:#C19544"/>
		<stop  offset="0.3049" style="stop-color:#86542B"/>
		<stop  offset="0.5614" style="stop-color:#FCF6B1"/>
		<stop  offset="0.8363" style="stop-color:#85542B"/>
	</linearGradient>
	<path class="st33" d="M564.44,810.64c0.07,2.56,0.37,3.33,1.25,3.55c0.59,0.15,1.32,0.18,1.61,0.18c0.15,0,0.26,0.11,0.26,0.26
		c0,0.18-0.22,0.26-0.59,0.26c-1.83,0-3.11-0.11-3.41-0.11c-0.29,0-1.65,0.11-3.11,0.11c-0.33,0-0.51-0.04-0.51-0.26
		c0-0.15,0.11-0.26,0.26-0.26c0.26,0,0.84-0.04,1.32-0.18c0.81-0.22,0.92-1.06,0.92-3.88v-17.84c0-1.25,0.18-1.58,0.44-1.58
		c0.37,0,0.92,0.62,1.25,0.95c0.51,0.51,5.2,5.49,10.18,10.62c3.19,3.3,6.63,7,7.62,8.02l-0.33-15.6c-0.04-2.01-0.22-2.71-1.21-2.89
		c-0.59-0.11-1.32-0.15-1.58-0.15c-0.22,0-0.26-0.18-0.26-0.29c0-0.18,0.26-0.22,0.62-0.22c1.46,0,3,0.07,3.37,0.07
		s1.43-0.07,2.75-0.07c0.33,0,0.59,0.04,0.59,0.22c0,0.11-0.15,0.29-0.37,0.29c-0.15,0-0.4,0-0.77,0.07
		c-1.06,0.22-1.14,0.84-1.14,2.71l-0.07,18.24c0,2.05-0.04,2.23-0.26,2.23c-0.33,0-0.66-0.26-2.45-1.9
		c-0.33-0.29-4.98-4.87-8.39-8.43c-3.74-3.92-7.36-7.73-8.35-8.83L564.44,810.64z"/>
	<linearGradient id="SVGID_35_" gradientUnits="userSpaceOnUse" x1="15.9838" y1="781.5249" x2="995.4035" y2="816.9256">
		<stop  offset="0.1251" style="stop-color:#7B552A"/>
		<stop  offset="0.2705" style="stop-color:#C19544"/>
		<stop  offset="0.3049" style="stop-color:#86542B"/>
		<stop  offset="0.5614" style="stop-color:#FCF6B1"/>
		<stop  offset="0.8363" style="stop-color:#85542B"/>
	</linearGradient>
	<path class="st34" d="M602.83,811.96c-3.15-2.71-3.92-6.26-3.92-9.23c0-2.09,0.77-5.71,3.63-8.5c1.94-1.87,4.87-3.33,9.82-3.33
		c1.28,0,3.11,0.11,4.69,0.37c1.21,0.22,2.23,0.44,3.3,0.48c0.33,0,0.4,0.15,0.4,0.33c0,0.26-0.07,0.62-0.15,1.76
		c-0.04,1.03-0.04,2.75-0.07,3.19c-0.04,0.48-0.18,0.66-0.37,0.66c-0.22,0-0.26-0.22-0.26-0.66c0-1.21-0.51-2.46-1.36-3.11
		c-1.13-0.95-3.48-1.72-6.34-1.72c-4.14,0-6.12,1.1-7.25,2.16c-2.38,2.2-2.89,4.98-2.89,8.13c0,5.97,4.73,11.28,11.61,11.28
		c2.42,0,4.03-0.18,5.31-1.46c0.7-0.7,1.13-2.02,1.25-2.6c0.07-0.33,0.11-0.44,0.33-0.44c0.15,0,0.29,0.22,0.29,0.44
		s-0.44,2.93-0.77,3.99c-0.18,0.59-0.26,0.7-0.81,0.92c-1.32,0.51-3.74,0.7-5.82,0.7C608.62,815.3,605.36,814.16,602.83,811.96z"/>
	<linearGradient id="SVGID_36_" gradientUnits="userSpaceOnUse" x1="16.0035" y1="780.9792" x2="995.4232" y2="816.3799">
		<stop  offset="0.1251" style="stop-color:#7B552A"/>
		<stop  offset="0.2705" style="stop-color:#C19544"/>
		<stop  offset="0.3049" style="stop-color:#86542B"/>
		<stop  offset="0.5614" style="stop-color:#FCF6B1"/>
		<stop  offset="0.8363" style="stop-color:#85542B"/>
	</linearGradient>
	<path class="st35" d="M629.98,805.85c0,3,0,5.46,0.15,6.74c0.11,0.92,0.22,1.5,1.17,1.65c0.48,0.07,1.17,0.15,1.47,0.15
		c0.18,0,0.26,0.15,0.26,0.26c0,0.15-0.15,0.26-0.51,0.26c-1.8,0-3.88-0.11-4.03-0.11c-0.18,0-2.2,0.11-3.19,0.11
		c-0.33,0-0.51-0.07-0.51-0.26c0-0.11,0.07-0.26,0.26-0.26c0.29,0,0.7-0.07,0.99-0.15c0.62-0.15,0.73-0.73,0.84-1.65
		c0.15-1.28,0.18-3.74,0.18-6.74v-5.49c0-4.83,0-5.71-0.07-6.7c-0.07-1.06-0.33-1.54-1.02-1.68c-0.37-0.07-0.77-0.11-0.99-0.11
		c-0.15,0-0.26-0.15-0.26-0.26c0-0.18,0.15-0.26,0.51-0.26c1.06,0,3.08,0.07,3.26,0.07c0.15,0,2.23-0.07,3.22-0.07
		c0.37,0,0.51,0.07,0.51,0.26c0,0.11-0.15,0.26-0.26,0.26c-0.22,0-0.44,0-0.81,0.07c-0.88,0.18-1.06,0.62-1.14,1.72
		c-0.04,0.99-0.04,1.87-0.04,6.7V805.85z"/>
	<linearGradient id="SVGID_37_" gradientUnits="userSpaceOnUse" x1="16.028" y1="780.3002" x2="995.4478" y2="815.7009">
		<stop  offset="0.1251" style="stop-color:#7B552A"/>
		<stop  offset="0.2705" style="stop-color:#C19544"/>
		<stop  offset="0.3049" style="stop-color:#86542B"/>
		<stop  offset="0.5614" style="stop-color:#FCF6B1"/>
		<stop  offset="0.8363" style="stop-color:#85542B"/>
	</linearGradient>
	<path class="st36" d="M639.1,800.35c0-4.83,0-5.71-0.07-6.7c-0.07-1.06-0.26-1.58-1.32-1.72c-0.26-0.04-0.81-0.07-1.1-0.07
		c-0.11,0-0.26-0.15-0.26-0.26c0-0.18,0.15-0.26,0.51-0.26c1.47,0,3.55,0.07,3.74,0.07c0.22,0,6.96,0.04,7.69,0
		c0.62-0.04,1.21-0.15,1.47-0.18c0.15-0.04,0.29-0.15,0.44-0.15c0.11,0,0.15,0.15,0.15,0.29c0,0.22-0.18,0.59-0.26,1.47
		c-0.04,0.29-0.11,1.68-0.18,2.05c-0.04,0.15-0.15,0.33-0.29,0.33c-0.18,0-0.26-0.15-0.26-0.4c0-0.22-0.04-0.73-0.18-1.1
		c-0.22-0.51-0.55-0.73-2.31-0.95c-0.55-0.07-4.29-0.11-4.65-0.11c-0.15,0-0.18,0.11-0.18,0.33v8.46c0,0.22,0,0.33,0.18,0.33
		c0.4,0,4.65,0,5.39-0.07c0.77-0.07,1.25-0.11,1.58-0.44c0.22-0.22,0.37-0.4,0.48-0.4c0.11,0,0.18,0.07,0.18,0.26
		c0,0.18-0.18,0.7-0.26,1.72c-0.07,0.62-0.15,1.8-0.15,2.02c0,0.26-0.07,0.59-0.29,0.59c-0.15,0-0.22-0.11-0.22-0.29
		c0-0.29,0-0.62-0.15-1.02c-0.11-0.44-0.4-0.81-1.65-0.95c-0.88-0.11-4.32-0.15-4.87-0.15c-0.18,0-0.22,0.11-0.22,0.22v2.6
		c0,1.06-0.04,4.69,0,5.31c0.07,2.09,0.66,2.49,3.85,2.49c0.84,0,2.38,0,3.22-0.33c0.84-0.37,1.28-0.92,1.47-2.16
		c0.07-0.37,0.15-0.48,0.33-0.48c0.18,0,0.22,0.26,0.22,0.48c0,0.22-0.26,2.34-0.44,3c-0.22,0.81-0.55,0.81-1.79,0.81
		c-2.42,0-4.29-0.07-5.61-0.11c-1.35-0.07-2.2-0.07-2.67-0.07c-0.07,0-0.7,0-1.39,0.04c-0.62,0.04-1.36,0.07-1.87,0.07
		c-0.33,0-0.51-0.07-0.51-0.26c0-0.11,0.07-0.26,0.26-0.26c0.29,0,0.7-0.11,0.99-0.15c0.62-0.11,0.7-0.73,0.84-1.65
		c0.18-1.28,0.18-3.74,0.18-6.74V800.35z"/>
	<linearGradient id="SVGID_38_" gradientUnits="userSpaceOnUse" x1="16.0545" y1="779.5676" x2="995.4742" y2="814.9683">
		<stop  offset="0.1251" style="stop-color:#7B552A"/>
		<stop  offset="0.2705" style="stop-color:#C19544"/>
		<stop  offset="0.3049" style="stop-color:#86542B"/>
		<stop  offset="0.5614" style="stop-color:#FCF6B1"/>
		<stop  offset="0.8363" style="stop-color:#85542B"/>
	</linearGradient>
	<path class="st37" d="M659.17,810.64c0.07,2.56,0.37,3.33,1.25,3.55c0.59,0.15,1.32,0.18,1.61,0.18c0.15,0,0.26,0.11,0.26,0.26
		c0,0.18-0.22,0.26-0.59,0.26c-1.83,0-3.11-0.11-3.41-0.11c-0.29,0-1.65,0.11-3.11,0.11c-0.33,0-0.51-0.04-0.51-0.26
		c0-0.15,0.11-0.26,0.26-0.26c0.26,0,0.84-0.04,1.32-0.18c0.81-0.22,0.92-1.06,0.92-3.88v-17.84c0-1.25,0.18-1.58,0.44-1.58
		c0.37,0,0.92,0.62,1.25,0.95c0.51,0.51,5.2,5.49,10.18,10.62c3.19,3.3,6.63,7,7.62,8.02l-0.33-15.6c-0.04-2.01-0.22-2.71-1.21-2.89
		c-0.59-0.11-1.32-0.15-1.58-0.15c-0.22,0-0.26-0.18-0.26-0.29c0-0.18,0.26-0.22,0.62-0.22c1.46,0,3,0.07,3.37,0.07
		s1.43-0.07,2.75-0.07c0.33,0,0.59,0.04,0.59,0.22c0,0.11-0.15,0.29-0.37,0.29c-0.15,0-0.4,0-0.77,0.07
		c-1.06,0.22-1.14,0.84-1.14,2.71l-0.07,18.24c0,2.05-0.04,2.23-0.26,2.23c-0.33,0-0.66-0.26-2.45-1.9
		c-0.33-0.29-4.98-4.87-8.39-8.43c-3.74-3.92-7.36-7.73-8.35-8.83L659.17,810.64z"/>
	<linearGradient id="SVGID_39_" gradientUnits="userSpaceOnUse" x1="16.0931" y1="778.5006" x2="995.5128" y2="813.9013">
		<stop  offset="0.1251" style="stop-color:#7B552A"/>
		<stop  offset="0.2705" style="stop-color:#C19544"/>
		<stop  offset="0.3049" style="stop-color:#86542B"/>
		<stop  offset="0.5614" style="stop-color:#FCF6B1"/>
		<stop  offset="0.8363" style="stop-color:#85542B"/>
	</linearGradient>
	<path class="st38" d="M686.61,811.96c-3.15-2.71-3.92-6.26-3.92-9.23c0-2.09,0.77-5.71,3.63-8.5c1.94-1.87,4.87-3.33,9.82-3.33
		c1.28,0,3.11,0.11,4.69,0.37c1.21,0.22,2.23,0.44,3.3,0.48c0.33,0,0.4,0.15,0.4,0.33c0,0.26-0.07,0.62-0.15,1.76
		c-0.04,1.03-0.04,2.75-0.07,3.19c-0.04,0.48-0.18,0.66-0.37,0.66c-0.22,0-0.26-0.22-0.26-0.66c0-1.21-0.51-2.46-1.36-3.11
		c-1.13-0.95-3.48-1.72-6.34-1.72c-4.14,0-6.12,1.1-7.25,2.16c-2.38,2.2-2.89,4.98-2.89,8.13c0,5.97,4.73,11.28,11.61,11.28
		c2.42,0,4.03-0.18,5.31-1.46c0.7-0.7,1.13-2.02,1.25-2.6c0.07-0.33,0.11-0.44,0.33-0.44c0.15,0,0.29,0.22,0.29,0.44
		s-0.44,2.93-0.77,3.99c-0.18,0.59-0.26,0.7-0.81,0.92c-1.32,0.51-3.74,0.7-5.82,0.7C692.4,815.3,689.14,814.16,686.61,811.96z"/>
	<linearGradient id="SVGID_40_" gradientUnits="userSpaceOnUse" x1="16.1128" y1="777.9549" x2="995.5325" y2="813.3556">
		<stop  offset="0.1251" style="stop-color:#7B552A"/>
		<stop  offset="0.2705" style="stop-color:#C19544"/>
		<stop  offset="0.3049" style="stop-color:#86542B"/>
		<stop  offset="0.5614" style="stop-color:#FCF6B1"/>
		<stop  offset="0.8363" style="stop-color:#85542B"/>
	</linearGradient>
	<path class="st39" d="M713.76,805.85c0,3,0,5.46,0.15,6.74c0.11,0.92,0.22,1.5,1.17,1.65c0.48,0.07,1.17,0.15,1.47,0.15
		c0.18,0,0.26,0.15,0.26,0.26c0,0.15-0.15,0.26-0.51,0.26c-1.8,0-3.88-0.11-4.03-0.11c-0.18,0-2.2,0.11-3.19,0.11
		c-0.33,0-0.51-0.07-0.51-0.26c0-0.11,0.07-0.26,0.26-0.26c0.29,0,0.7-0.07,0.99-0.15c0.62-0.15,0.73-0.73,0.84-1.65
		c0.15-1.28,0.18-3.74,0.18-6.74v-5.49c0-4.83,0-5.71-0.07-6.7c-0.07-1.06-0.33-1.54-1.02-1.68c-0.37-0.07-0.77-0.11-0.99-0.11
		c-0.15,0-0.26-0.15-0.26-0.26c0-0.18,0.15-0.26,0.51-0.26c1.06,0,3.08,0.07,3.26,0.07c0.15,0,2.23-0.07,3.22-0.07
		c0.37,0,0.51,0.07,0.51,0.26c0,0.11-0.15,0.26-0.26,0.26c-0.22,0-0.44,0-0.81,0.07c-0.88,0.18-1.06,0.62-1.14,1.72
		c-0.04,0.99-0.04,1.87-0.04,6.7V805.85z"/>
	<linearGradient id="SVGID_41_" gradientUnits="userSpaceOnUse" x1="16.1379" y1="777.2595" x2="995.5577" y2="812.6603">
		<stop  offset="0.1251" style="stop-color:#7B552A"/>
		<stop  offset="0.2705" style="stop-color:#C19544"/>
		<stop  offset="0.3049" style="stop-color:#86542B"/>
		<stop  offset="0.5614" style="stop-color:#FCF6B1"/>
		<stop  offset="0.8363" style="stop-color:#85542B"/>
	</linearGradient>
	<path class="st40" d="M728.52,791.96c0.4-1.03,0.55-1.21,0.77-1.21c0.33,0,0.44,0.44,0.77,1.14c0.59,1.32,5.75,14.18,7.73,18.9
		c1.17,2.78,2.05,3.19,2.75,3.41c0.48,0.15,0.95,0.18,1.28,0.18c0.18,0,0.4,0.07,0.4,0.26c0,0.18-0.37,0.26-0.73,0.26
		c-0.48,0-2.86,0-5.09-0.07c-0.62-0.04-1.14-0.04-1.14-0.22c0-0.15,0.07-0.15,0.22-0.22c0.18-0.07,0.51-0.33,0.29-0.84l-2.89-7.14
		c-0.07-0.15-0.11-0.18-0.29-0.18h-7.44c-0.15,0-0.26,0.07-0.33,0.26l-1.83,4.98c-0.29,0.77-0.48,1.54-0.48,2.09
		c0,0.62,0.55,0.84,1.1,0.84h0.29c0.26,0,0.33,0.11,0.33,0.26c0,0.18-0.18,0.26-0.48,0.26c-0.77,0-2.53-0.11-2.89-0.11
		c-0.33,0-1.94,0.11-3.26,0.11c-0.4,0-0.62-0.07-0.62-0.26c0-0.15,0.15-0.26,0.29-0.26c0.22,0,0.7-0.04,0.95-0.07
		c1.46-0.18,2.09-1.28,2.71-2.86L728.52,791.96z M732.11,804.93c0.15,0,0.15-0.07,0.11-0.22l-3.19-8.54c-0.18-0.48-0.37-0.48-0.55,0
		l-3,8.54c-0.04,0.15,0,0.22,0.11,0.22H732.11z"/>
	<linearGradient id="SVGID_42_" gradientUnits="userSpaceOnUse" x1="16.1615" y1="776.6073" x2="995.5812" y2="812.008">
		<stop  offset="0.1251" style="stop-color:#7B552A"/>
		<stop  offset="0.2705" style="stop-color:#C19544"/>
		<stop  offset="0.3049" style="stop-color:#86542B"/>
		<stop  offset="0.5614" style="stop-color:#FCF6B1"/>
		<stop  offset="0.8363" style="stop-color:#85542B"/>
	</linearGradient>
	<path class="st41" d="M742.62,814.45c-0.44-0.22-0.48-0.33-0.48-1.17c0-1.54,0.15-2.78,0.18-3.3c0-0.33,0.07-0.51,0.26-0.51
		c0.18,0,0.29,0.11,0.29,0.37c0,0.26,0,0.7,0.11,1.14c0.51,2.27,2.93,3.08,5.09,3.08c3.19,0,4.83-1.79,4.83-4.14
		c0-2.23-1.21-3.3-4.07-5.42l-1.47-1.1c-3.48-2.6-4.62-4.51-4.62-6.67c0-3.66,2.89-5.86,7.14-5.86c1.28,0,2.56,0.18,3.33,0.37
		c0.62,0.15,0.88,0.15,1.14,0.15c0.26,0,0.33,0.04,0.33,0.22c0,0.15-0.15,1.17-0.15,3.3c0,0.48-0.04,0.7-0.26,0.7
		c-0.22,0-0.26-0.15-0.29-0.4c-0.04-0.37-0.29-1.21-0.48-1.54c-0.22-0.37-1.28-1.54-4.18-1.54c-2.34,0-4.29,1.17-4.29,3.37
		c0,1.98,0.99,3.11,4.18,5.27l0.92,0.62c3.92,2.67,5.27,4.83,5.27,7.51c0,1.83-0.7,3.81-3,5.31c-1.36,0.88-3.37,1.1-5.13,1.1
		C745.81,815.3,743.94,815.08,742.62,814.45z"/>
	<linearGradient id="SVGID_43_" gradientUnits="userSpaceOnUse" x1="16.2714" y1="773.5676" x2="995.6911" y2="808.9683">
		<stop  offset="0.1251" style="stop-color:#7B552A"/>
		<stop  offset="0.2705" style="stop-color:#C19544"/>
		<stop  offset="0.3049" style="stop-color:#86542B"/>
		<stop  offset="0.5614" style="stop-color:#FCF6B1"/>
		<stop  offset="0.8363" style="stop-color:#85542B"/>
	</linearGradient>
	<path class="st42" d="M774.35,797.82c0-5.71,0-6.74-0.07-7.91c-0.07-1.25-0.37-1.83-1.58-2.09c-0.29-0.07-0.92-0.11-1.25-0.11
		c-0.15,0-0.29-0.07-0.29-0.22c0-0.22,0.18-0.29,0.59-0.29c1.65,0,3.85,0.11,4.14,0.11c0.81,0,2.93-0.11,4.61-0.11
		c4.58,0,6.23,1.54,6.81,2.09c0.81,0.77,1.83,2.42,1.83,4.36c0,5.2-3.81,8.72-9.01,8.72c-0.18,0-0.59,0-0.77-0.04
		c-0.18,0-0.4-0.07-0.4-0.26c0-0.29,0.22-0.33,0.99-0.33c3.55,0,6.34-2.6,6.34-5.97c0-1.21-0.11-3.66-2.05-5.64
		c-1.94-1.98-4.18-1.83-5.02-1.83c-0.62,0-1.25,0.07-1.58,0.22c-0.22,0.07-0.29,0.33-0.29,0.7v15.05c0,3.52,0,6.41,0.18,7.95
		c0.11,1.06,0.33,1.87,1.43,2.02c0.51,0.07,1.32,0.15,1.65,0.15c0.22,0,0.29,0.11,0.29,0.22c0,0.18-0.18,0.29-0.59,0.29
		c-2.01,0-4.32-0.11-4.51-0.11c-0.11,0-2.42,0.11-3.52,0.11c-0.4,0-0.59-0.07-0.59-0.29c0-0.11,0.07-0.22,0.29-0.22
		c0.33,0,0.77-0.07,1.1-0.15c0.73-0.15,0.92-0.95,1.06-2.02c0.18-1.54,0.18-4.43,0.18-7.95V797.82z"/>
	<linearGradient id="SVGID_44_" gradientUnits="userSpaceOnUse" x1="16.2314" y1="774.6735" x2="995.6511" y2="810.0742">
		<stop  offset="0.1251" style="stop-color:#7B552A"/>
		<stop  offset="0.2705" style="stop-color:#C19544"/>
		<stop  offset="0.3049" style="stop-color:#86542B"/>
		<stop  offset="0.5614" style="stop-color:#FCF6B1"/>
		<stop  offset="0.8363" style="stop-color:#85542B"/>
	</linearGradient>
	<path class="st43" d="M794.97,800.35c0-4.83,0-5.71-0.07-6.7c-0.07-1.06-0.26-1.58-1.32-1.72c-0.26-0.04-0.81-0.07-1.1-0.07
		c-0.11,0-0.26-0.15-0.26-0.26c0-0.18,0.15-0.26,0.51-0.26c1.47,0,3.55,0.07,3.74,0.07c0.22,0,6.96,0.04,7.69,0
		c0.62-0.04,1.21-0.15,1.47-0.18c0.15-0.04,0.29-0.15,0.44-0.15c0.11,0,0.15,0.15,0.15,0.29c0,0.22-0.18,0.59-0.26,1.47
		c-0.04,0.29-0.11,1.68-0.18,2.05c-0.04,0.15-0.15,0.33-0.29,0.33c-0.18,0-0.26-0.15-0.26-0.4c0-0.22-0.04-0.73-0.18-1.1
		c-0.22-0.51-0.55-0.73-2.31-0.95c-0.55-0.07-4.29-0.11-4.65-0.11c-0.15,0-0.18,0.11-0.18,0.33v8.46c0,0.22,0,0.33,0.18,0.33
		c0.4,0,4.65,0,5.39-0.07c0.77-0.07,1.25-0.11,1.58-0.44c0.22-0.22,0.37-0.4,0.48-0.4c0.11,0,0.18,0.07,0.18,0.26
		c0,0.18-0.18,0.7-0.26,1.72c-0.07,0.62-0.15,1.8-0.15,2.02c0,0.26-0.07,0.59-0.29,0.59c-0.15,0-0.22-0.11-0.22-0.29
		c0-0.29,0-0.62-0.15-1.02c-0.11-0.44-0.4-0.81-1.65-0.95c-0.88-0.11-4.32-0.15-4.87-0.15c-0.18,0-0.22,0.11-0.22,0.22v2.6
		c0,1.06-0.04,4.69,0,5.31c0.07,2.09,0.66,2.49,3.85,2.49c0.84,0,2.38,0,3.22-0.33c0.84-0.37,1.28-0.92,1.47-2.16
		c0.07-0.37,0.15-0.48,0.33-0.48c0.18,0,0.22,0.26,0.22,0.48c0,0.22-0.26,2.34-0.44,3c-0.22,0.81-0.55,0.81-1.79,0.81
		c-2.42,0-4.29-0.07-5.61-0.11c-1.35-0.07-2.2-0.07-2.67-0.07c-0.07,0-0.7,0-1.39,0.04c-0.62,0.04-1.36,0.07-1.87,0.07
		c-0.33,0-0.51-0.07-0.51-0.26c0-0.11,0.07-0.26,0.26-0.26c0.29,0,0.7-0.11,0.99-0.15c0.62-0.11,0.7-0.73,0.84-1.65
		c0.18-1.28,0.18-3.74,0.18-6.74V800.35z"/>
	<linearGradient id="SVGID_45_" gradientUnits="userSpaceOnUse" x1="16.2579" y1="773.9409" x2="995.6776" y2="809.3416">
		<stop  offset="0.1251" style="stop-color:#7B552A"/>
		<stop  offset="0.2705" style="stop-color:#C19544"/>
		<stop  offset="0.3049" style="stop-color:#86542B"/>
		<stop  offset="0.5614" style="stop-color:#FCF6B1"/>
		<stop  offset="0.8363" style="stop-color:#85542B"/>
	</linearGradient>
	<path class="st44" d="M815.05,810.64c0.07,2.56,0.37,3.33,1.25,3.55c0.59,0.15,1.32,0.18,1.61,0.18c0.15,0,0.26,0.11,0.26,0.26
		c0,0.18-0.22,0.26-0.59,0.26c-1.83,0-3.11-0.11-3.41-0.11c-0.29,0-1.65,0.11-3.11,0.11c-0.33,0-0.51-0.04-0.51-0.26
		c0-0.15,0.11-0.26,0.26-0.26c0.26,0,0.84-0.04,1.32-0.18c0.81-0.22,0.92-1.06,0.92-3.88v-17.84c0-1.25,0.18-1.58,0.44-1.58
		c0.37,0,0.92,0.62,1.25,0.95c0.51,0.51,5.2,5.49,10.18,10.62c3.19,3.3,6.63,7,7.62,8.02l-0.33-15.6c-0.04-2.01-0.22-2.71-1.21-2.89
		c-0.59-0.11-1.32-0.15-1.58-0.15c-0.22,0-0.26-0.18-0.26-0.29c0-0.18,0.26-0.22,0.62-0.22c1.46,0,3,0.07,3.37,0.07
		s1.43-0.07,2.75-0.07c0.33,0,0.59,0.04,0.59,0.22c0,0.11-0.15,0.29-0.37,0.29c-0.15,0-0.4,0-0.77,0.07
		c-1.06,0.22-1.14,0.84-1.14,2.71l-0.07,18.24c0,2.05-0.04,2.23-0.26,2.23c-0.33,0-0.66-0.26-2.45-1.9
		c-0.33-0.29-4.98-4.87-8.39-8.43c-3.74-3.92-7.36-7.73-8.35-8.83L815.05,810.64z"/>
	<linearGradient id="SVGID_46_" gradientUnits="userSpaceOnUse" x1="16.2934" y1="772.9592" x2="995.7131" y2="808.3599">
		<stop  offset="0.1251" style="stop-color:#7B552A"/>
		<stop  offset="0.2705" style="stop-color:#C19544"/>
		<stop  offset="0.3049" style="stop-color:#86542B"/>
		<stop  offset="0.5614" style="stop-color:#FCF6B1"/>
		<stop  offset="0.8363" style="stop-color:#85542B"/>
	</linearGradient>
	<path class="st45" d="M847.65,791.96c0.4-1.03,0.55-1.21,0.77-1.21c0.33,0,0.44,0.44,0.77,1.14c0.59,1.32,5.75,14.18,7.73,18.9
		c1.17,2.78,2.05,3.19,2.75,3.41c0.48,0.15,0.95,0.18,1.28,0.18c0.18,0,0.4,0.07,0.4,0.26c0,0.18-0.37,0.26-0.73,0.26
		c-0.48,0-2.86,0-5.09-0.07c-0.62-0.04-1.14-0.04-1.14-0.22c0-0.15,0.07-0.15,0.22-0.22c0.18-0.07,0.51-0.33,0.29-0.84l-2.89-7.14
		c-0.07-0.15-0.11-0.18-0.29-0.18h-7.44c-0.15,0-0.26,0.07-0.33,0.26l-1.83,4.98c-0.29,0.77-0.48,1.54-0.48,2.09
		c0,0.62,0.55,0.84,1.1,0.84h0.29c0.26,0,0.33,0.11,0.33,0.26c0,0.18-0.18,0.26-0.48,0.26c-0.77,0-2.53-0.11-2.89-0.11
		c-0.33,0-1.94,0.11-3.26,0.11c-0.4,0-0.62-0.07-0.62-0.26c0-0.15,0.15-0.26,0.29-0.26c0.22,0,0.7-0.04,0.95-0.07
		c1.47-0.18,2.09-1.28,2.71-2.86L847.65,791.96z M851.24,804.93c0.15,0,0.15-0.07,0.11-0.22l-3.19-8.54c-0.18-0.48-0.37-0.48-0.55,0
		l-3,8.54c-0.04,0.15,0,0.22,0.11,0.22H851.24z"/>
	<linearGradient id="SVGID_47_" gradientUnits="userSpaceOnUse" x1="16.313" y1="772.4149" x2="995.7328" y2="807.8156">
		<stop  offset="0.1251" style="stop-color:#7B552A"/>
		<stop  offset="0.2705" style="stop-color:#C19544"/>
		<stop  offset="0.3049" style="stop-color:#86542B"/>
		<stop  offset="0.5614" style="stop-color:#FCF6B1"/>
		<stop  offset="0.8363" style="stop-color:#85542B"/>
	</linearGradient>
	<path class="st46" d="M867.07,805.92c0,4.58,0.07,6.45,0.66,7c0.51,0.51,1.76,0.73,4.29,0.73c1.68,0,3.11-0.04,3.88-0.95
		c0.4-0.48,0.66-1.14,0.77-1.76c0.04-0.22,0.15-0.4,0.33-0.4c0.15,0,0.22,0.15,0.22,0.48c0,0.33-0.22,2.2-0.48,3.11
		c-0.22,0.73-0.33,0.84-2.05,0.84c-2.31,0-4.1-0.04-5.61-0.11c-1.47-0.04-2.56-0.07-3.52-0.07c-0.15,0-0.7,0-1.32,0.04
		c-0.66,0.04-1.36,0.07-1.87,0.07c-0.33,0-0.51-0.07-0.51-0.26c0-0.11,0.07-0.26,0.26-0.26c0.29,0,0.7-0.07,0.99-0.15
		c0.62-0.15,0.7-0.73,0.84-1.65c0.18-1.28,0.18-3.74,0.18-6.74v-5.49c0-4.83,0-5.71-0.07-6.7c-0.07-1.06-0.26-1.58-1.32-1.72
		c-0.26-0.04-0.81-0.07-1.1-0.07c-0.11,0-0.26-0.15-0.26-0.26c0-0.18,0.15-0.26,0.51-0.26c1.47,0,3.48,0.07,3.66,0.07
		c0.15,0,2.56-0.07,3.55-0.07c0.33,0,0.51,0.07,0.51,0.26c0,0.11-0.15,0.22-0.26,0.22c-0.22,0-0.7,0.04-1.06,0.07
		c-0.95,0.18-1.14,0.66-1.21,1.76c-0.04,0.99-0.04,1.87-0.04,6.7V805.92z"/>
	<linearGradient id="SVGID_48_" gradientUnits="userSpaceOnUse" x1="16.3453" y1="771.5223" x2="995.7651" y2="806.923">
		<stop  offset="0.1251" style="stop-color:#7B552A"/>
		<stop  offset="0.2705" style="stop-color:#C19544"/>
		<stop  offset="0.3049" style="stop-color:#86542B"/>
		<stop  offset="0.5614" style="stop-color:#FCF6B1"/>
		<stop  offset="0.8363" style="stop-color:#85542B"/>
	</linearGradient>
	<path class="st47" d="M882.27,800.35c0-4.83,0-5.71-0.07-6.7c-0.07-1.06-0.26-1.58-1.32-1.72c-0.26-0.04-0.81-0.07-1.1-0.07
		c-0.11,0-0.26-0.15-0.26-0.26c0-0.18,0.15-0.26,0.51-0.26c1.47,0,3.55,0.07,3.74,0.07c0.22,0,6.96,0.04,7.69,0
		c0.62-0.04,1.21-0.15,1.47-0.18c0.15-0.04,0.29-0.15,0.44-0.15c0.11,0,0.15,0.15,0.15,0.29c0,0.22-0.18,0.59-0.26,1.47
		c-0.04,0.29-0.11,1.68-0.18,2.05c-0.04,0.15-0.15,0.33-0.29,0.33c-0.18,0-0.26-0.15-0.26-0.4c0-0.22-0.04-0.73-0.18-1.1
		c-0.22-0.51-0.55-0.73-2.31-0.95c-0.55-0.07-4.29-0.11-4.65-0.11c-0.15,0-0.18,0.11-0.18,0.33v8.46c0,0.22,0,0.33,0.18,0.33
		c0.4,0,4.65,0,5.38-0.07c0.77-0.07,1.25-0.11,1.58-0.44c0.22-0.22,0.37-0.4,0.48-0.4c0.11,0,0.18,0.07,0.18,0.26
		c0,0.18-0.18,0.7-0.26,1.72c-0.07,0.62-0.15,1.8-0.15,2.02c0,0.26-0.07,0.59-0.29,0.59c-0.15,0-0.22-0.11-0.22-0.29
		c0-0.29,0-0.62-0.15-1.02c-0.11-0.44-0.4-0.81-1.65-0.95c-0.88-0.11-4.32-0.15-4.87-0.15c-0.18,0-0.22,0.11-0.22,0.22v2.6
		c0,1.06-0.04,4.69,0,5.31c0.07,2.09,0.66,2.49,3.85,2.49c0.84,0,2.38,0,3.22-0.33c0.84-0.37,1.28-0.92,1.47-2.16
		c0.07-0.37,0.15-0.48,0.33-0.48c0.18,0,0.22,0.26,0.22,0.48c0,0.22-0.26,2.34-0.44,3c-0.22,0.81-0.55,0.81-1.79,0.81
		c-2.42,0-4.29-0.07-5.61-0.11c-1.35-0.07-2.2-0.07-2.67-0.07c-0.07,0-0.7,0-1.39,0.04c-0.62,0.04-1.36,0.07-1.87,0.07
		c-0.33,0-0.51-0.07-0.51-0.26c0-0.11,0.07-0.26,0.26-0.26c0.29,0,0.7-0.11,0.99-0.15c0.62-0.11,0.7-0.73,0.84-1.65
		c0.18-1.28,0.18-3.74,0.18-6.74V800.35z"/>
	<linearGradient id="SVGID_49_" gradientUnits="userSpaceOnUse" x1="16.3646" y1="770.9885" x2="995.7844" y2="806.3892">
		<stop  offset="0.1251" style="stop-color:#7B552A"/>
		<stop  offset="0.2705" style="stop-color:#C19544"/>
		<stop  offset="0.3049" style="stop-color:#86542B"/>
		<stop  offset="0.5614" style="stop-color:#FCF6B1"/>
		<stop  offset="0.8363" style="stop-color:#85542B"/>
	</linearGradient>
	<path class="st48" d="M898.28,814.45c-0.44-0.22-0.48-0.33-0.48-1.17c0-1.54,0.15-2.78,0.18-3.3c0-0.33,0.07-0.51,0.26-0.51
		c0.18,0,0.29,0.11,0.29,0.37c0,0.26,0,0.7,0.11,1.14c0.51,2.27,2.93,3.08,5.09,3.08c3.19,0,4.83-1.79,4.83-4.14
		c0-2.23-1.21-3.3-4.07-5.42l-1.47-1.1c-3.48-2.6-4.62-4.51-4.62-6.67c0-3.66,2.89-5.86,7.14-5.86c1.28,0,2.56,0.18,3.33,0.37
		c0.62,0.15,0.88,0.15,1.14,0.15c0.26,0,0.33,0.04,0.33,0.22c0,0.15-0.15,1.17-0.15,3.3c0,0.48-0.04,0.7-0.26,0.7
		c-0.22,0-0.26-0.15-0.29-0.4c-0.04-0.37-0.29-1.21-0.48-1.54c-0.22-0.37-1.28-1.54-4.18-1.54c-2.34,0-4.29,1.17-4.29,3.37
		c0,1.98,0.99,3.11,4.18,5.27l0.92,0.62c3.92,2.67,5.27,4.83,5.27,7.51c0,1.83-0.7,3.81-3,5.31c-1.36,0.88-3.37,1.1-5.13,1.1
		C901.47,815.3,899.6,815.08,898.28,814.45z"/>
</g>
<g>
	<linearGradient id="SVGID_50_" gradientUnits="userSpaceOnUse" x1="88.0365" y1="804.7797" x2="1231.8729" y2="795.3395">
		<stop  offset="0.1251" style="stop-color:#7B552A"/>
		<stop  offset="0.2705" style="stop-color:#C19544"/>
		<stop  offset="0.3049" style="stop-color:#86542B"/>
		<stop  offset="0.5614" style="stop-color:#FCF6B1"/>
		<stop  offset="0.8363" style="stop-color:#85542B"/>
	</linearGradient>
	<rect x="167.79" y="802.48" class="st49" width="108.16" height="2.39"/>
	<linearGradient id="SVGID_51_" gradientUnits="userSpaceOnUse" x1="88.088" y1="811.0131" x2="1231.9244" y2="801.5729">
		<stop  offset="0.1251" style="stop-color:#7B552A"/>
		<stop  offset="0.2705" style="stop-color:#C19544"/>
		<stop  offset="0.3049" style="stop-color:#86542B"/>
		<stop  offset="0.5614" style="stop-color:#FCF6B1"/>
		<stop  offset="0.8363" style="stop-color:#85542B"/>
	</linearGradient>
	<rect x="923.12" y="802.48" class="st50" width="108.16" height="2.39"/>
</g>
<g>
	
		<linearGradient id="SVGID_52_" gradientUnits="userSpaceOnUse" x1="636.5933" y1="936.3049" x2="662.5538" y2="261.3313" gradientTransform="matrix(0.7071 -0.7071 0.7071 0.7071 -188.9436 575.3193)">
		<stop  offset="0.1251" style="stop-color:#7B552A"/>
		<stop  offset="0.2705" style="stop-color:#C19544"/>
		<stop  offset="0.3049" style="stop-color:#86542B"/>
		<stop  offset="0.5614" style="stop-color:#FCF6B1"/>
		<stop  offset="0.8363" style="stop-color:#85542B"/>
	</linearGradient>
	<polygon class="st51" points="482.49,418.48 468.23,432.74 468.04,432.93 482.3,447.19 482.49,447 586,550.5 600.25,536.25 
		496.75,432.74 613.79,315.69 599.53,301.43 	"/>
	
		<linearGradient id="SVGID_53_" gradientUnits="userSpaceOnUse" x1="654.9788" y1="937.012" x2="680.9393" y2="262.0384" gradientTransform="matrix(0.7071 -0.7071 0.7071 0.7071 -188.9436 575.3193)">
		<stop  offset="0.1251" style="stop-color:#7B552A"/>
		<stop  offset="0.2705" style="stop-color:#C19544"/>
		<stop  offset="0.3049" style="stop-color:#86542B"/>
		<stop  offset="0.5614" style="stop-color:#FCF6B1"/>
		<stop  offset="0.8363" style="stop-color:#85542B"/>
	</linearGradient>
	<polygon class="st52" points="622.24,324.14 515.04,431.35 529.3,445.6 636.5,338.4 	"/>
	
		<linearGradient id="SVGID_54_" gradientUnits="userSpaceOnUse" x1="659.446" y1="937.1838" x2="685.4066" y2="262.2102" gradientTransform="matrix(0.7071 -0.7071 0.7071 0.7071 -188.9436 575.3193)">
		<stop  offset="0.1251" style="stop-color:#7B552A"/>
		<stop  offset="0.2705" style="stop-color:#C19544"/>
		<stop  offset="0.3049" style="stop-color:#86542B"/>
		<stop  offset="0.5614" style="stop-color:#FCF6B1"/>
		<stop  offset="0.8363" style="stop-color:#85542B"/>
	</linearGradient>
	<polygon class="st53" points="537.75,454.05 552,468.31 644.95,375.37 764.04,494.45 778.3,480.2 659.21,361.11 644.95,346.85 
		630.69,361.11 	"/>
	
		<linearGradient id="SVGID_55_" gradientUnits="userSpaceOnUse" x1="693.6543" y1="938.4996" x2="719.6148" y2="263.5259" gradientTransform="matrix(0.7071 -0.7071 0.7071 0.7071 -188.9436 575.3193)">
		<stop  offset="0.1251" style="stop-color:#7B552A"/>
		<stop  offset="0.2705" style="stop-color:#C19544"/>
		<stop  offset="0.3049" style="stop-color:#86542B"/>
		<stop  offset="0.5614" style="stop-color:#FCF6B1"/>
		<stop  offset="0.8363" style="stop-color:#85542B"/>
	</linearGradient>
	<polygon class="st54" points="741.33,517.16 755.59,502.9 646.16,393.48 631.9,407.74 	"/>
	
		<linearGradient id="SVGID_56_" gradientUnits="userSpaceOnUse" x1="579.871" y1="934.1233" x2="605.8315" y2="259.1497" gradientTransform="matrix(0.7071 -0.7071 0.7071 0.7071 -188.9436 575.3193)">
		<stop  offset="0.1251" style="stop-color:#7B552A"/>
		<stop  offset="0.2705" style="stop-color:#C19544"/>
		<stop  offset="0.3049" style="stop-color:#86542B"/>
		<stop  offset="0.5614" style="stop-color:#FCF6B1"/>
		<stop  offset="0.8363" style="stop-color:#85542B"/>
	</linearGradient>
	<polygon class="st55" points="704.05,525.92 585.28,644.7 599.53,658.96 718.31,540.18 732.57,525.92 718.31,511.66 623.14,416.49 
		608.89,430.75 	"/>
	
		<linearGradient id="SVGID_57_" gradientUnits="userSpaceOnUse" x1="561.7886" y1="933.4278" x2="587.7491" y2="258.4542" gradientTransform="matrix(0.7071 -0.7071 0.7071 0.7071 -188.9436 575.3193)">
		<stop  offset="0.1251" style="stop-color:#7B552A"/>
		<stop  offset="0.2705" style="stop-color:#C19544"/>
		<stop  offset="0.3049" style="stop-color:#86542B"/>
		<stop  offset="0.5614" style="stop-color:#FCF6B1"/>
		<stop  offset="0.8363" style="stop-color:#85542B"/>
	</linearGradient>
	<polygon class="st56" points="671.74,512.82 562.57,621.99 576.83,636.25 686,527.08 	"/>
	
		<linearGradient id="SVGID_58_" gradientUnits="userSpaceOnUse" x1="557.4181" y1="933.2597" x2="583.3786" y2="258.2861" gradientTransform="matrix(0.7071 -0.7071 0.7071 0.7071 -188.9436 575.3193)">
		<stop  offset="0.1251" style="stop-color:#7B552A"/>
		<stop  offset="0.2705" style="stop-color:#C19544"/>
		<stop  offset="0.3049" style="stop-color:#86542B"/>
		<stop  offset="0.5614" style="stop-color:#FCF6B1"/>
		<stop  offset="0.8363" style="stop-color:#85542B"/>
	</linearGradient>
	<polygon class="st57" points="666.86,507.93 652.6,493.67 557.68,588.59 435.03,465.94 420.77,480.2 543.42,602.85 557.68,617.11 
		571.94,602.85 	"/>
	
		<linearGradient id="SVGID_59_" gradientUnits="userSpaceOnUse" x1="523.3245" y1="931.9484" x2="549.285" y2="256.9748" gradientTransform="matrix(0.7071 -0.7071 0.7071 0.7071 -188.9436 575.3193)">
		<stop  offset="0.1251" style="stop-color:#7B552A"/>
		<stop  offset="0.2705" style="stop-color:#C19544"/>
		<stop  offset="0.3049" style="stop-color:#86542B"/>
		<stop  offset="0.5614" style="stop-color:#FCF6B1"/>
		<stop  offset="0.8363" style="stop-color:#85542B"/>
	</linearGradient>
	<polygon class="st58" points="458.75,442.22 444.49,456.47 560.28,572.26 574.54,558 	"/>
</g>
</svg>
